<?xml version="1.0" encoding="UTF-8" standalone="no"?>
<!DOCTYPE svg PUBLIC "-//W3C//DTD SVG 1.1//EN"
 "http://www.w3.org/Graphics/SVG/1.1/DTD/svg11.dtd">
<!-- Generated by graphviz version 14.1.5 (0)
 -->
<!-- Title: CFG for &#39;isSquare&#39; function Pages: 1 -->
<svg width="716pt" height="436pt"
 viewBox="0.00 0.00 716.00 436.00" xmlns="http://www.w3.org/2000/svg" xmlns:xlink="http://www.w3.org/1999/xlink">
<g id="graph0" class="graph" transform="scale(1 1) rotate(0) translate(4 431.5)">
<title>CFG for &#39;isSquare&#39; function</title>
<polygon fill="white" stroke="none" points="-4,4 -4,-431.5 711.5,-431.5 711.5,4 -4,4"/>
<text xml:space="preserve" text-anchor="middle" x="353.75" y="-7.2" font-family="Times,serif" font-size="14.00">CFG for &#39;isSquare&#39; function</text>
<!-- Node0x557fd0e48ca0 -->
<g id="node1" class="node">
<title>Node0x557fd0e48ca0</title>
<polygon fill="#d24b40" fill-opacity="0.439216" stroke="#3d50c3" points="191.12,-337 191.12,-427 603.12,-427 603.12,-337 191.12,-337"/>
<text xml:space="preserve" text-anchor="start" x="199.12" y="-409.7" font-family="Courier,monospace" font-size="14.00">entry:</text>
<polyline fill="none" stroke="#3d50c3" points="191.12,-402.5 603.12,-402.5"/>
<text xml:space="preserve" text-anchor="start" x="199.12" y="-385.2" font-family="Courier,monospace" font-size="14.00">%gttmp9 = icmp sgt i32 %0, 0</text>
<text xml:space="preserve" text-anchor="start" x="199.12" y="-368.7" font-family="Courier,monospace" font-size="14.00"> br i1 %gttmp9, label %loopbody, label %loopexit</text>
<polyline fill="none" stroke="#3d50c3" points="191.12,-361.5 603.12,-361.5"/>
<text xml:space="preserve" text-anchor="middle" x="293.75" y="-344.2" font-family="Courier,monospace" font-size="14.00">T</text>
<polyline fill="none" stroke="#3d50c3" points="396.38,-337 396.38,-361.5"/>
<text xml:space="preserve" text-anchor="middle" x="499.5" y="-344.2" font-family="Courier,monospace" font-size="14.00">F</text>
</g>
<!-- Node0x557fd0e48de0 -->
<g id="node2" class="node">
<title>Node0x557fd0e48de0</title>
<polygon fill="#b70d28" fill-opacity="0.439216" stroke="#b70d28" points="18,-144 18,-300 504.25,-300 504.25,-144 18,-144"/>
<text xml:space="preserve" text-anchor="start" x="26" y="-282.7" font-family="Courier,monospace" font-size="14.00">loopbody:</text>
<polyline fill="none" stroke="#b70d28" points="18,-275.5 504.25,-275.5"/>
<text xml:space="preserve" text-anchor="start" x="26" y="-258.2" font-family="Courier,monospace" font-size="14.00">%n.011 = phi i32 [ %subtmp, %loopbody ], [ %0, %entry ]</text>
<text xml:space="preserve" text-anchor="start" x="26" y="-241.7" font-family="Courier,monospace" font-size="14.00"> %odd.010 = phi i32 [ %addtmp, %loopbody ], [ 1, %entry ]</text>
<text xml:space="preserve" text-anchor="start" x="26" y="-225.2" font-family="Courier,monospace" font-size="14.00"> %subtmp = sub i32 %n.011, %odd.010</text>
<text xml:space="preserve" text-anchor="start" x="26" y="-208.7" font-family="Courier,monospace" font-size="14.00"> %addtmp = add i32 %odd.010, 2</text>
<text xml:space="preserve" text-anchor="start" x="26" y="-192.2" font-family="Courier,monospace" font-size="14.00"> %gttmp = icmp sgt i32 %subtmp, 0</text>
<text xml:space="preserve" text-anchor="start" x="26" y="-175.7" font-family="Courier,monospace" font-size="14.00"> br i1 %gttmp, label %loopbody, label %loopexit</text>
<polyline fill="none" stroke="#b70d28" points="18,-168.5 504.25,-168.5"/>
<text xml:space="preserve" text-anchor="middle" x="139.12" y="-151.2" font-family="Courier,monospace" font-size="14.00">T</text>
<polyline fill="none" stroke="#b70d28" points="260.25,-144 260.25,-168.5"/>
<text xml:space="preserve" text-anchor="middle" x="381.88" y="-151.2" font-family="Courier,monospace" font-size="14.00">F</text>
</g>
<!-- Node0x557fd0e48ca0&#45;&gt;Node0x557fd0e48de0 -->
<g id="edge1" class="edge">
<title>Node0x557fd0e48ca0:s0&#45;&gt;Node0x557fd0e48de0</title>
<path fill="none" stroke="black" d="M293.75,-336.5C293.75,-328.32 292.96,-319.94 291.62,-311.62"/>
<polygon fill="black" stroke="black" points="295.06,-310.98 289.77,-301.81 288.19,-312.28 295.06,-310.98"/>
</g>
<!-- Node0x557fd0e49310 -->
<g id="node3" class="node">
<title>Node0x557fd0e49310</title>
<polygon fill="#d24b40" fill-opacity="0.439216" stroke="#3d50c3" points="204.75,-25 204.75,-107 707.5,-107 707.5,-25 204.75,-25"/>
<text xml:space="preserve" text-anchor="start" x="212.75" y="-89.7" font-family="Courier,monospace" font-size="14.00">loopexit:</text>
<polyline fill="none" stroke="#3d50c3" points="204.75,-82.5 707.5,-82.5"/>
<text xml:space="preserve" text-anchor="start" x="212.75" y="-65.2" font-family="Courier,monospace" font-size="14.00">%n.0.lcssa = phi i32 [ %0, %entry ], [ %subtmp, %loopbody ]</text>
<text xml:space="preserve" text-anchor="start" x="212.75" y="-48.7" font-family="Courier,monospace" font-size="14.00"> %eqtmp = icmp eq i32 %n.0.lcssa, 0</text>
<text xml:space="preserve" text-anchor="start" x="212.75" y="-32.2" font-family="Courier,monospace" font-size="14.00"> ret i1 %eqtmp</text>
</g>
<!-- Node0x557fd0e48ca0&#45;&gt;Node0x557fd0e49310 -->
<g id="edge2" class="edge">
<title>Node0x557fd0e48ca0:s1&#45;&gt;Node0x557fd0e49310</title>
<path fill="none" stroke="black" d="M499.5,-336.5C499.5,-319.39 510.05,-317.33 513.12,-300.5 525.68,-231.86 535.09,-209.73 513.12,-143.5 510.02,-134.13 505.27,-124.98 499.82,-116.46"/>
<polygon fill="black" stroke="black" points="502.8,-114.63 494.26,-108.36 497.03,-118.59 502.8,-114.63"/>
</g>
<!-- Node0x557fd0e48de0&#45;&gt;Node0x557fd0e48de0 -->
<g id="edge3" class="edge">
<title>Node0x557fd0e48de0:s0&#45;&gt;Node0x557fd0e48de0</title>
<path fill="none" stroke="black" d="M108.16,-143.52C39.88,-118.37 0,-126.23 0,-189.12 0,-199.11 3.36,-207.71 9.39,-215.02"/>
<polygon fill="black" stroke="black" points="6.93,-217.51 16.55,-221.94 11.79,-212.47 6.93,-217.51"/>
</g>
<!-- Node0x557fd0e48de0&#45;&gt;Node0x557fd0e49310 -->
<g id="edge4" class="edge">
<title>Node0x557fd0e48de0:s1&#45;&gt;Node0x557fd0e49310</title>
<path fill="none" stroke="black" d="M504.5,-156.25C525.47,-156.25 516.49,-136.96 500.88,-116.32"/>
<polygon fill="black" stroke="black" points="503.74,-114.3 494.79,-108.63 498.25,-118.65 503.74,-114.3"/>
</g>
</g>
</svg>
