<?xml version="1.0" encoding="UTF-8" standalone="no"?>
<!DOCTYPE svg PUBLIC "-//W3C//DTD SVG 1.1//EN"
 "http://www.w3.org/Graphics/SVG/1.1/DTD/svg11.dtd">
<!-- Generated by graphviz version 14.1.5 (0)
 -->
<!-- Title: CFG for &#39;isSquare&#39; function Pages: 1 -->
<svg width="655pt" height="522pt"
 viewBox="0.00 0.00 655.00 522.00" xmlns="http://www.w3.org/2000/svg" xmlns:xlink="http://www.w3.org/1999/xlink">
<g id="graph0" class="graph" transform="scale(1 1) rotate(0) translate(4 517.5)">
<title>CFG for &#39;isSquare&#39; function</title>
<polygon fill="white" stroke="none" points="-4,4 -4,-517.5 651.12,-517.5 651.12,4 -4,4"/>
<text xml:space="preserve" text-anchor="middle" x="323.56" y="-7.2" font-family="Times,serif" font-size="14.00">CFG for &#39;isSquare&#39; function</text>
<!-- Node0x55d925ba6d10 -->
<g id="node1" class="node">
<title>Node0x55d925ba6d10</title>
<polygon fill="#d24b40" fill-opacity="0.439216" stroke="#3d50c3" points="58.88,-423 58.88,-513 479.12,-513 479.12,-423 58.88,-423"/>
<text xml:space="preserve" text-anchor="start" x="66.88" y="-495.7" font-family="Courier,monospace" font-size="14.00">entry:</text>
<polyline fill="none" stroke="#3d50c3" points="58.88,-488.5 479.12,-488.5"/>
<text xml:space="preserve" text-anchor="start" x="66.88" y="-471.2" font-family="Courier,monospace" font-size="14.00">%eqtmp = icmp eq i32 %0, 0</text>
<text xml:space="preserve" text-anchor="start" x="66.88" y="-454.7" font-family="Courier,monospace" font-size="14.00"> br i1 %eqtmp, label %common.ret, label %loopbody</text>
<polyline fill="none" stroke="#3d50c3" points="58.88,-447.5 479.12,-447.5"/>
<text xml:space="preserve" text-anchor="middle" x="163.5" y="-430.2" font-family="Courier,monospace" font-size="14.00">T</text>
<polyline fill="none" stroke="#3d50c3" points="268.12,-423 268.12,-447.5"/>
<text xml:space="preserve" text-anchor="middle" x="373.25" y="-430.2" font-family="Courier,monospace" font-size="14.00">F</text>
</g>
<!-- Node0x55d925ba6e50 -->
<g id="node2" class="node">
<title>Node0x55d925ba6e50</title>
<polygon fill="#d24b40" fill-opacity="0.439216" stroke="#3d50c3" points="0,-25 0,-90.5 544,-90.5 544,-25 0,-25"/>
<text xml:space="preserve" text-anchor="start" x="8" y="-73.2" font-family="Courier,monospace" font-size="14.00">common.ret:</text>
<polyline fill="none" stroke="#3d50c3" points="0,-66 544,-66"/>
<text xml:space="preserve" text-anchor="start" x="8" y="-48.7" font-family="Courier,monospace" font-size="14.00">%common.ret.op = phi i1 [ %eqtmp7, %loopexit ], [ true, %entry ]</text>
<text xml:space="preserve" text-anchor="start" x="8" y="-32.2" font-family="Courier,monospace" font-size="14.00"> ret i1 %common.ret.op</text>
</g>
<!-- Node0x55d925ba6d10&#45;&gt;Node0x55d925ba6e50 -->
<g id="edge1" class="edge">
<title>Node0x55d925ba6d10:s0&#45;&gt;Node0x55d925ba6e50</title>
<path fill="none" stroke="black" d="M163.5,-422.5C163.5,-405.7 154.59,-403.1 152,-386.5 141.26,-317.55 130.96,-296.03 152,-229.5 167.8,-179.55 204.02,-131.56 232.57,-99.25"/>
<polygon fill="black" stroke="black" points="234.92,-101.87 239,-92.09 229.71,-97.19 234.92,-101.87"/>
</g>
<!-- Node0x55d925ba7380 -->
<g id="node3" class="node">
<title>Node0x55d925ba7380</title>
<polygon fill="#b70d28" fill-opacity="0.439216" stroke="#b70d28" points="160.88,-230 160.88,-386 647.12,-386 647.12,-230 160.88,-230"/>
<text xml:space="preserve" text-anchor="start" x="168.88" y="-368.7" font-family="Courier,monospace" font-size="14.00">loopbody:</text>
<polyline fill="none" stroke="#b70d28" points="160.88,-361.5 647.12,-361.5"/>
<text xml:space="preserve" text-anchor="start" x="168.88" y="-344.2" font-family="Courier,monospace" font-size="14.00">%n.013 = phi i32 [ %subtmp, %loopbody ], [ %0, %entry ]</text>
<text xml:space="preserve" text-anchor="start" x="168.88" y="-327.7" font-family="Courier,monospace" font-size="14.00"> %odd.012 = phi i32 [ %addtmp, %loopbody ], [ 1, %entry ]</text>
<text xml:space="preserve" text-anchor="start" x="168.88" y="-311.2" font-family="Courier,monospace" font-size="14.00"> %subtmp = sub i32 %n.013, %odd.012</text>
<text xml:space="preserve" text-anchor="start" x="168.88" y="-294.7" font-family="Courier,monospace" font-size="14.00"> %addtmp = add i32 %odd.012, 2</text>
<text xml:space="preserve" text-anchor="start" x="168.88" y="-278.2" font-family="Courier,monospace" font-size="14.00"> %gttmp = icmp sgt i32 %subtmp, 0</text>
<text xml:space="preserve" text-anchor="start" x="168.88" y="-261.7" font-family="Courier,monospace" font-size="14.00"> br i1 %gttmp, label %loopbody, label %loopexit</text>
<polyline fill="none" stroke="#b70d28" points="160.88,-254.5 647.12,-254.5"/>
<text xml:space="preserve" text-anchor="middle" x="282" y="-237.2" font-family="Courier,monospace" font-size="14.00">T</text>
<polyline fill="none" stroke="#b70d28" points="403.12,-230 403.12,-254.5"/>
<text xml:space="preserve" text-anchor="middle" x="524.75" y="-237.2" font-family="Courier,monospace" font-size="14.00">F</text>
</g>
<!-- Node0x55d925ba6d10&#45;&gt;Node0x55d925ba7380 -->
<g id="edge2" class="edge">
<title>Node0x55d925ba6d10:s1&#45;&gt;Node0x55d925ba7380</title>
<path fill="none" stroke="black" d="M373.25,-422.5C373.25,-414.36 374,-406 375.26,-397.69"/>
<polygon fill="black" stroke="black" points="378.69,-398.36 377,-387.9 371.8,-397.13 378.69,-398.36"/>
</g>
<!-- Node0x55d925ba7380&#45;&gt;Node0x55d925ba7380 -->
<g id="edge3" class="edge">
<title>Node0x55d925ba7380:s0&#45;&gt;Node0x55d925ba7380</title>
<path fill="none" stroke="black" d="M249.21,-229.56C182.04,-206.54 142.88,-214.58 142.88,-275.12 142.88,-284.83 146.24,-293.18 152.26,-300.28"/>
<polygon fill="black" stroke="black" points="149.73,-302.7 159.41,-306.99 154.52,-297.59 149.73,-302.7"/>
</g>
<!-- Node0x55d925ba7570 -->
<g id="node4" class="node">
<title>Node0x55d925ba7570</title>
<polygon fill="#d65244" fill-opacity="0.439216" stroke="#3d50c3" points="272,-127.5 272,-193 552,-193 552,-127.5 272,-127.5"/>
<text xml:space="preserve" text-anchor="start" x="280" y="-175.7" font-family="Courier,monospace" font-size="14.00">loopexit:</text>
<polyline fill="none" stroke="#3d50c3" points="272,-168.5 552,-168.5"/>
<text xml:space="preserve" text-anchor="start" x="280" y="-151.2" font-family="Courier,monospace" font-size="14.00">%eqtmp7 = icmp eq i32 %subtmp, 0</text>
<text xml:space="preserve" text-anchor="start" x="280" y="-134.7" font-family="Courier,monospace" font-size="14.00"> br label %common.ret</text>
</g>
<!-- Node0x55d925ba7380&#45;&gt;Node0x55d925ba7570 -->
<g id="edge4" class="edge">
<title>Node0x55d925ba7380:s1&#45;&gt;Node0x55d925ba7570</title>
<path fill="none" stroke="black" d="M524.75,-229.5C524.75,-218.49 520.77,-209.21 514.3,-201.4"/>
<polygon fill="black" stroke="black" points="517,-199.15 507.45,-194.55 512.05,-204.1 517,-199.15"/>
</g>
<!-- Node0x55d925ba7570&#45;&gt;Node0x55d925ba6e50 -->
<g id="edge5" class="edge">
<title>Node0x55d925ba7570&#45;&gt;Node0x55d925ba6e50</title>
<path fill="none" stroke="black" d="M367.32,-127.17C354.18,-117.75 339.68,-107.33 326.02,-97.53"/>
<polygon fill="black" stroke="black" points="328.13,-94.74 317.97,-91.75 324.05,-100.42 328.13,-94.74"/>
</g>
</g>
</svg>
