<?xml version="1.0" encoding="UTF-8" standalone="no"?>
<!DOCTYPE svg PUBLIC "-//W3C//DTD SVG 1.1//EN"
 "http://www.w3.org/Graphics/SVG/1.1/DTD/svg11.dtd">
<!-- Generated by graphviz version 14.1.5 (0)
 -->
<!-- Title: CFG for &#39;modInverse&#39; function Pages: 1 -->
<svg width="1264pt" height="2555pt"
 viewBox="0.00 0.00 1264.00 2555.00" xmlns="http://www.w3.org/2000/svg" xmlns:xlink="http://www.w3.org/1999/xlink">
<g id="graph0" class="graph" transform="scale(1 1) rotate(0) translate(4 2550.5)">
<title>CFG for &#39;modInverse&#39; function</title>
<polygon fill="white" stroke="none" points="-4,4 -4,-2550.5 1259.88,-2550.5 1259.88,4 -4,4"/>
<text xml:space="preserve" text-anchor="middle" x="627.94" y="-7.2" font-family="Times,serif" font-size="14.00">CFG for &#39;modInverse&#39; function</text>
<!-- Node0x563588e8c310 -->
<g id="node1" class="node">
<title>Node0x563588e8c310</title>
<polygon fill="#e16751" fill-opacity="0.439216" stroke="#3d50c3" points="116.25,-2439.5 116.25,-2546 569.5,-2546 569.5,-2439.5 116.25,-2439.5"/>
<text xml:space="preserve" text-anchor="start" x="124.25" y="-2528.7" font-family="Courier,monospace" font-size="14.00">entry:</text>
<polyline fill="none" stroke="#3d50c3" points="116.25,-2521.5 569.5,-2521.5"/>
<text xml:space="preserve" text-anchor="start" x="124.25" y="-2504.2" font-family="Courier,monospace" font-size="14.00">%modtmp = srem i32 %0, %1</text>
<text xml:space="preserve" text-anchor="start" x="124.25" y="-2487.7" font-family="Courier,monospace" font-size="14.00"> %eqtmp = icmp eq i32 %modtmp, 0</text>
<text xml:space="preserve" text-anchor="start" x="124.25" y="-2471.2" font-family="Courier,monospace" font-size="14.00"> br i1 %eqtmp, label %common.ret, label %default.next</text>
<polyline fill="none" stroke="#3d50c3" points="116.25,-2464 569.5,-2464"/>
<text xml:space="preserve" text-anchor="middle" x="229.38" y="-2446.7" font-family="Courier,monospace" font-size="14.00">T</text>
<polyline fill="none" stroke="#3d50c3" points="342.5,-2439.5 342.5,-2464"/>
<text xml:space="preserve" text-anchor="middle" x="455.62" y="-2446.7" font-family="Courier,monospace" font-size="14.00">F</text>
</g>
<!-- Node0x563588e8da70 -->
<g id="node2" class="node">
<title>Node0x563588e8da70</title>
<polygon fill="#e16751" fill-opacity="0.439216" stroke="#3d50c3" points="0,-25 0,-107 535.75,-107 535.75,-25 0,-25"/>
<text xml:space="preserve" text-anchor="start" x="8" y="-89.7" font-family="Courier,monospace" font-size="14.00">common.ret:</text>
<polyline fill="none" stroke="#3d50c3" points="0,-82.5 535.75,-82.5"/>
<text xml:space="preserve" text-anchor="start" x="8" y="-65.2" font-family="Courier,monospace" font-size="14.00">%common.ret.op = phi i32 [ 0, %entry ], [ 1, %default.next ], [</text>
<text xml:space="preserve" text-anchor="start" x="8" y="-48.7" font-family="Courier,monospace" font-size="14.00">... %result.1.i, %mulMod.exit57.i ]</text>
<text xml:space="preserve" text-anchor="start" x="8" y="-32.2" font-family="Courier,monospace" font-size="14.00"> ret i32 %common.ret.op</text>
</g>
<!-- Node0x563588e8c310&#45;&gt;Node0x563588e8da70 -->
<g id="edge1" class="edge">
<title>Node0x563588e8c310:s0&#45;&gt;Node0x563588e8da70</title>
<path fill="none" stroke="black" d="M229.38,-2439C229.38,-2437.41 206.88,-2212.34 206.88,-2210.75 206.88,-2210.75 206.88,-2210.75 206.88,-389.25 206.88,-292.16 233.94,-181.44 252.01,-118.33"/>
<polygon fill="black" stroke="black" points="255.31,-119.52 254.74,-108.94 248.59,-117.56 255.31,-119.52"/>
</g>
<!-- Node0x563588ec11f0 -->
<g id="node3" class="node">
<title>Node0x563588ec11f0</title>
<polygon fill="#e36c55" fill-opacity="0.439216" stroke="#3d50c3" points="234.75,-2296 234.75,-2402.5 721,-2402.5 721,-2296 234.75,-2296"/>
<text xml:space="preserve" text-anchor="start" x="242.75" y="-2385.2" font-family="Courier,monospace" font-size="14.00">default.next:</text>
<polyline fill="none" stroke="#3d50c3" points="234.75,-2378 721,-2378"/>
<text xml:space="preserve" text-anchor="start" x="242.75" y="-2360.7" font-family="Courier,monospace" font-size="14.00">%subtmp = add nsw i32 %1, &#45;2</text>
<text xml:space="preserve" text-anchor="start" x="242.75" y="-2344.2" font-family="Courier,monospace" font-size="14.00"> %eqtmp.i = icmp eq i32 %subtmp, 0</text>
<text xml:space="preserve" text-anchor="start" x="242.75" y="-2327.7" font-family="Courier,monospace" font-size="14.00"> br i1 %eqtmp.i, label %common.ret, label %default.next.i</text>
<polyline fill="none" stroke="#3d50c3" points="234.75,-2320.5 721,-2320.5"/>
<text xml:space="preserve" text-anchor="middle" x="355.88" y="-2303.2" font-family="Courier,monospace" font-size="14.00">T</text>
<polyline fill="none" stroke="#3d50c3" points="477,-2296 477,-2320.5"/>
<text xml:space="preserve" text-anchor="middle" x="598.62" y="-2303.2" font-family="Courier,monospace" font-size="14.00">F</text>
</g>
<!-- Node0x563588e8c310&#45;&gt;Node0x563588ec11f0 -->
<g id="edge2" class="edge">
<title>Node0x563588e8c310:s1&#45;&gt;Node0x563588ec11f0</title>
<path fill="none" stroke="black" d="M455.62,-2439C455.62,-2430.81 456.53,-2422.32 457.97,-2413.98"/>
<polygon fill="black" stroke="black" points="461.39,-2414.72 459.94,-2404.23 454.53,-2413.34 461.39,-2414.72"/>
</g>
<!-- Node0x563588ec11f0&#45;&gt;Node0x563588e8da70 -->
<g id="edge3" class="edge">
<title>Node0x563588ec11f0:s0&#45;&gt;Node0x563588e8da70</title>
<path fill="none" stroke="black" d="M233.75,-2308.25C201.69,-2308.25 267.88,-2053.81 267.88,-2021.75 267.88,-2021.75 267.88,-2021.75 267.88,-389.25 267.88,-293.79 267.88,-182.42 267.88,-118.76"/>
<polygon fill="black" stroke="black" points="271.38,-118.96 267.88,-108.96 264.38,-118.96 271.38,-118.96"/>
</g>
<!-- Node0x563588e8b270 -->
<g id="node4" class="node">
<title>Node0x563588e8b270</title>
<polygon fill="#e57058" fill-opacity="0.439216" stroke="#3d50c3" points="391.88,-2160.5 391.88,-2259 803.88,-2259 803.88,-2160.5 391.88,-2160.5"/>
<text xml:space="preserve" text-anchor="start" x="399.88" y="-2241.7" font-family="Courier,monospace" font-size="14.00">default.next.i:</text>
<polyline fill="none" stroke="#3d50c3" points="391.88,-2234.5 803.88,-2234.5"/>
<text xml:space="preserve" text-anchor="start" x="399.88" y="-2217.2" font-family="Courier,monospace" font-size="14.00">%lttmp.i = icmp slt i32 %modtmp, 0</text>
<text xml:space="preserve" text-anchor="start" x="399.88" y="-2200.7" font-family="Courier,monospace" font-size="14.00"> %addtmp.i = select i1 %lttmp.i, i32 %1, i32 0</text>
<text xml:space="preserve" text-anchor="start" x="399.88" y="-2184.2" font-family="Courier,monospace" font-size="14.00"> %spec.select.i = add nsw i32 %addtmp.i, %modtmp</text>
<text xml:space="preserve" text-anchor="start" x="399.88" y="-2167.7" font-family="Courier,monospace" font-size="14.00"> br label %loopbody.i</text>
</g>
<!-- Node0x563588ec11f0&#45;&gt;Node0x563588e8b270 -->
<g id="edge4" class="edge">
<title>Node0x563588ec11f0:s1&#45;&gt;Node0x563588e8b270</title>
<path fill="none" stroke="black" d="M598.62,-2295.5C598.62,-2287.41 598.59,-2278.88 598.54,-2270.48"/>
<polygon fill="black" stroke="black" points="602.04,-2270.64 598.46,-2260.67 595.04,-2270.69 602.04,-2270.64"/>
</g>
<!-- Node0x563588e8b810 -->
<g id="node5" class="node">
<title>Node0x563588e8b810</title>
<polygon fill="#cc403a" fill-opacity="0.439216" stroke="#3d50c3" points="317.62,-1918 317.62,-2123.5 878.12,-2123.5 878.12,-1918 317.62,-1918"/>
<text xml:space="preserve" text-anchor="start" x="325.62" y="-2106.2" font-family="Courier,monospace" font-size="14.00">loopbody.i:</text>
<polyline fill="none" stroke="#3d50c3" points="317.62,-2099 878.12,-2099"/>
<text xml:space="preserve" text-anchor="start" x="325.62" y="-2081.7" font-family="Courier,monospace" font-size="14.00">%base.160.i = phi i32 [ %spec.select.i, %default.next.i ], [</text>
<text xml:space="preserve" text-anchor="start" x="325.62" y="-2065.2" font-family="Courier,monospace" font-size="14.00">... %common.ret.op.i56.i, %mulMod.exit57.i ]</text>
<text xml:space="preserve" text-anchor="start" x="325.62" y="-2048.7" font-family="Courier,monospace" font-size="14.00"> %exp.059.i = phi i32 [ %subtmp, %default.next.i ], [ %divtmp35.i,</text>
<text xml:space="preserve" text-anchor="start" x="325.62" y="-2032.2" font-family="Courier,monospace" font-size="14.00">... %mulMod.exit57.i ]</text>
<text xml:space="preserve" text-anchor="start" x="325.62" y="-2015.7" font-family="Courier,monospace" font-size="14.00"> %result.058.i = phi i32 [ 1, %default.next.i ], [ %result.1.i,</text>
<text xml:space="preserve" text-anchor="start" x="325.62" y="-1999.2" font-family="Courier,monospace" font-size="14.00">... %mulMod.exit57.i ]</text>
<text xml:space="preserve" text-anchor="start" x="325.62" y="-1982.7" font-family="Courier,monospace" font-size="14.00"> %modtmp9.i = and i32 %exp.059.i, 1</text>
<text xml:space="preserve" text-anchor="start" x="325.62" y="-1966.2" font-family="Courier,monospace" font-size="14.00"> %eqtmp10.not.i = icmp eq i32 %modtmp9.i, 0</text>
<text xml:space="preserve" text-anchor="start" x="325.62" y="-1949.7" font-family="Courier,monospace" font-size="14.00"> br i1 %eqtmp10.not.i, label %ifcont13.i, label %then11.i</text>
<polyline fill="none" stroke="#3d50c3" points="317.62,-1942.5 878.12,-1942.5"/>
<text xml:space="preserve" text-anchor="middle" x="457.75" y="-1925.2" font-family="Courier,monospace" font-size="14.00">T</text>
<polyline fill="none" stroke="#3d50c3" points="597.88,-1918 597.88,-1942.5"/>
<text xml:space="preserve" text-anchor="middle" x="738" y="-1925.2" font-family="Courier,monospace" font-size="14.00">F</text>
</g>
<!-- Node0x563588e8b270&#45;&gt;Node0x563588e8b810 -->
<g id="edge5" class="edge">
<title>Node0x563588e8b270&#45;&gt;Node0x563588e8b810</title>
<path fill="none" stroke="black" d="M597.88,-2160.11C597.88,-2152.28 597.88,-2143.91 597.88,-2135.29"/>
<polygon fill="black" stroke="black" points="601.38,-2135.37 597.88,-2125.37 594.38,-2135.37 601.38,-2135.37"/>
</g>
<!-- Node0x563588ec3020 -->
<g id="node6" class="node">
<title>Node0x563588ec3020</title>
<polygon fill="#cc403a" fill-opacity="0.439216" stroke="#3d50c3" points="295.75,-1027 295.75,-1166.5 914,-1166.5 914,-1027 295.75,-1027"/>
<text xml:space="preserve" text-anchor="start" x="303.75" y="-1149.2" font-family="Courier,monospace" font-size="14.00">ifcont13.i:</text>
<polyline fill="none" stroke="#3d50c3" points="295.75,-1142 914,-1142"/>
<text xml:space="preserve" text-anchor="start" x="303.75" y="-1124.7" font-family="Courier,monospace" font-size="14.00">%result.1.i = phi i32 [ %result.058.i, %loopbody.i ], [ 0, %then11.i ], [</text>
<text xml:space="preserve" text-anchor="start" x="303.75" y="-1108.2" font-family="Courier,monospace" font-size="14.00">... %result.1.i.i, %ifcont17.i.i ]</text>
<text xml:space="preserve" text-anchor="start" x="303.75" y="-1091.7" font-family="Courier,monospace" font-size="14.00"> %divtmp35.i = lshr i32 %exp.059.i, 1</text>
<text xml:space="preserve" text-anchor="start" x="303.75" y="-1075.2" font-family="Courier,monospace" font-size="14.00"> %eqtmp3.i37.i = icmp eq i32 %base.160.i, 0</text>
<text xml:space="preserve" text-anchor="start" x="303.75" y="-1058.7" font-family="Courier,monospace" font-size="14.00"> br i1 %eqtmp3.i37.i, label %mulMod.exit57.i, label %default.next5.i39.i</text>
<polyline fill="none" stroke="#3d50c3" points="295.75,-1051.5 914,-1051.5"/>
<text xml:space="preserve" text-anchor="middle" x="449.88" y="-1034.2" font-family="Courier,monospace" font-size="14.00">T</text>
<polyline fill="none" stroke="#3d50c3" points="604,-1027 604,-1051.5"/>
<text xml:space="preserve" text-anchor="middle" x="758.62" y="-1034.2" font-family="Courier,monospace" font-size="14.00">F</text>
</g>
<!-- Node0x563588e8b810&#45;&gt;Node0x563588ec3020 -->
<g id="edge6" class="edge">
<title>Node0x563588e8b810:s0&#45;&gt;Node0x563588ec3020</title>
<path fill="none" stroke="black" d="M457.75,-1917.5C457.75,-1784.94 457.88,-1751.81 457.88,-1619.25 457.88,-1619.25 457.88,-1619.25 457.88,-1436.5 457.88,-1331.36 447.13,-1296.16 495.88,-1203 500.85,-1193.49 507.02,-1184.33 513.86,-1175.66"/>
<polygon fill="black" stroke="black" points="516.55,-1177.9 520.25,-1167.97 511.16,-1173.43 516.55,-1177.9"/>
</g>
<!-- Node0x563588ec3110 -->
<g id="node7" class="node">
<title>Node0x563588ec3110</title>
<polygon fill="#d24b40" fill-opacity="0.439216" stroke="#3d50c3" points="485.5,-1758 485.5,-1881 988.25,-1881 988.25,-1758 485.5,-1758"/>
<text xml:space="preserve" text-anchor="start" x="493.5" y="-1863.7" font-family="Courier,monospace" font-size="14.00">then11.i:</text>
<polyline fill="none" stroke="#3d50c3" points="485.5,-1856.5 988.25,-1856.5"/>
<text xml:space="preserve" text-anchor="start" x="493.5" y="-1839.2" font-family="Courier,monospace" font-size="14.00">%eqtmp.i.i = icmp eq i32 %result.058.i, 0</text>
<text xml:space="preserve" text-anchor="start" x="493.5" y="-1822.7" font-family="Courier,monospace" font-size="14.00"> %eqtmp3.i.i = icmp eq i32 %base.160.i, 0</text>
<text xml:space="preserve" text-anchor="start" x="493.5" y="-1806.2" font-family="Courier,monospace" font-size="14.00"> %or.cond.i.i = or i1 %eqtmp3.i.i, %eqtmp.i.i</text>
<text xml:space="preserve" text-anchor="start" x="493.5" y="-1789.7" font-family="Courier,monospace" font-size="14.00"> br i1 %or.cond.i.i, label %ifcont13.i, label %loopbody.i.i</text>
<polyline fill="none" stroke="#3d50c3" points="485.5,-1782.5 988.25,-1782.5"/>
<text xml:space="preserve" text-anchor="middle" x="611.12" y="-1765.2" font-family="Courier,monospace" font-size="14.00">T</text>
<polyline fill="none" stroke="#3d50c3" points="736.75,-1758 736.75,-1782.5"/>
<text xml:space="preserve" text-anchor="middle" x="862.38" y="-1765.2" font-family="Courier,monospace" font-size="14.00">F</text>
</g>
<!-- Node0x563588e8b810&#45;&gt;Node0x563588ec3110 -->
<g id="edge7" class="edge">
<title>Node0x563588e8b810:s1&#45;&gt;Node0x563588ec3110</title>
<path fill="none" stroke="black" d="M738,-1917.5C738,-1909.45 737.96,-1901.03 737.9,-1892.65"/>
<polygon fill="black" stroke="black" points="741.4,-1892.78 737.81,-1882.81 734.4,-1892.84 741.4,-1892.78"/>
</g>
<!-- Node0x563588e8b3e0 -->
<g id="node11" class="node">
<title>Node0x563588e8b3e0</title>
<polygon fill="#cc403a" fill-opacity="0.439216" stroke="#3d50c3" points="309.25,-144 309.25,-267 894.5,-267 894.5,-144 309.25,-144"/>
<text xml:space="preserve" text-anchor="start" x="317.25" y="-249.7" font-family="Courier,monospace" font-size="14.00">mulMod.exit57.i:</text>
<polyline fill="none" stroke="#3d50c3" points="309.25,-242.5 894.5,-242.5"/>
<text xml:space="preserve" text-anchor="start" x="317.25" y="-225.2" font-family="Courier,monospace" font-size="14.00">%common.ret.op.i56.i = phi i32 [ 0, %ifcont13.i ], [ %result.1.i51.i,</text>
<text xml:space="preserve" text-anchor="start" x="317.25" y="-208.7" font-family="Courier,monospace" font-size="14.00">... %ifcont17.i50.i ]</text>
<text xml:space="preserve" text-anchor="start" x="317.25" y="-192.2" font-family="Courier,monospace" font-size="14.00"> %gttmp.not.i = icmp eq i32 %divtmp35.i, 0</text>
<text xml:space="preserve" text-anchor="start" x="317.25" y="-175.7" font-family="Courier,monospace" font-size="14.00"> br i1 %gttmp.not.i, label %common.ret, label %loopbody.i</text>
<polyline fill="none" stroke="#3d50c3" points="309.25,-168.5 894.5,-168.5"/>
<text xml:space="preserve" text-anchor="middle" x="455.38" y="-151.2" font-family="Courier,monospace" font-size="14.00">T</text>
<polyline fill="none" stroke="#3d50c3" points="601.5,-144 601.5,-168.5"/>
<text xml:space="preserve" text-anchor="middle" x="747.62" y="-151.2" font-family="Courier,monospace" font-size="14.00">F</text>
</g>
<!-- Node0x563588ec3020&#45;&gt;Node0x563588e8b3e0 -->
<g id="edge15" class="edge">
<title>Node0x563588ec3020:s0&#45;&gt;Node0x563588e8b3e0</title>
<path fill="none" stroke="black" d="M449.88,-1026.5C449.88,-897.25 431.88,-865.5 431.88,-736.25 431.88,-736.25 431.88,-736.25 431.88,-553.5 431.88,-442.07 393.79,-399.2 450.88,-303.5 457.11,-293.05 464.95,-283.53 473.77,-274.91"/>
<polygon fill="black" stroke="black" points="476.01,-277.6 481.01,-268.25 471.28,-272.44 476.01,-277.6"/>
</g>
<!-- Node0x563588ec2c60 -->
<g id="node12" class="node">
<title>Node0x563588ec2c60</title>
<polygon fill="#d65244" fill-opacity="0.439216" stroke="#3d50c3" points="558.62,-875 558.62,-990 1053.12,-990 1053.12,-875 558.62,-875"/>
<text xml:space="preserve" text-anchor="start" x="566.62" y="-972.7" font-family="Courier,monospace" font-size="14.00">default.next5.i39.i:</text>
<polyline fill="none" stroke="#3d50c3" points="558.62,-965.5 1053.12,-965.5"/>
<text xml:space="preserve" text-anchor="start" x="566.62" y="-948.2" font-family="Courier,monospace" font-size="14.00">%modtmp.i40.i = srem i32 %base.160.i, %1</text>
<text xml:space="preserve" text-anchor="start" x="566.62" y="-931.7" font-family="Courier,monospace" font-size="14.00"> %lttmp.i.i = icmp slt i32 %modtmp.i40.i, 0</text>
<text xml:space="preserve" text-anchor="start" x="566.62" y="-915.2" font-family="Courier,monospace" font-size="14.00"> %addtmp.i.i = select i1 %lttmp.i.i, i32 %1, i32 0</text>
<text xml:space="preserve" text-anchor="start" x="566.62" y="-898.7" font-family="Courier,monospace" font-size="14.00"> %spec.select.i.i = add nsw i32 %addtmp.i.i, %modtmp.i40.i</text>
<text xml:space="preserve" text-anchor="start" x="566.62" y="-882.2" font-family="Courier,monospace" font-size="14.00"> br label %loopbody.i41.i</text>
</g>
<!-- Node0x563588ec3020&#45;&gt;Node0x563588ec2c60 -->
<g id="edge16" class="edge">
<title>Node0x563588ec3020:s1&#45;&gt;Node0x563588ec2c60</title>
<path fill="none" stroke="black" d="M758.62,-1026.5C758.62,-1017.94 760.24,-1009.37 762.86,-1001.08"/>
<polygon fill="black" stroke="black" points="766.11,-1002.39 766.33,-991.79 759.55,-999.94 766.11,-1002.39"/>
</g>
<!-- Node0x563588ec3110&#45;&gt;Node0x563588ec3020 -->
<g id="edge8" class="edge">
<title>Node0x563588ec3110:s0&#45;&gt;Node0x563588ec3020</title>
<path fill="none" stroke="black" d="M484.5,-1770.25C452.92,-1770.25 509.49,-1232.46 520.88,-1203 524.4,-1193.89 529,-1184.95 534.25,-1176.37"/>
<polygon fill="black" stroke="black" points="537.1,-1178.41 539.6,-1168.11 531.23,-1174.6 537.1,-1178.41"/>
</g>
<!-- Node0x563588ec31a0 -->
<g id="node8" class="node">
<title>Node0x563588ec31a0</title>
<polygon fill="#bb1b2c" fill-opacity="0.439216" stroke="#b70d28" points="533.25,-1515.5 533.25,-1721 1184.5,-1721 1184.5,-1515.5 533.25,-1515.5"/>
<text xml:space="preserve" text-anchor="start" x="541.25" y="-1703.7" font-family="Courier,monospace" font-size="14.00">loopbody.i.i:</text>
<polyline fill="none" stroke="#b70d28" points="533.25,-1696.5 1184.5,-1696.5"/>
<text xml:space="preserve" text-anchor="start" x="541.25" y="-1679.2" font-family="Courier,monospace" font-size="14.00">%result.0.pn.i = phi i32 [ %addtmp25.i.i, %ifcont17.i.i ], [</text>
<text xml:space="preserve" text-anchor="start" x="541.25" y="-1662.7" font-family="Courier,monospace" font-size="14.00">... %result.058.i, %then11.i ]</text>
<text xml:space="preserve" text-anchor="start" x="541.25" y="-1646.2" font-family="Courier,monospace" font-size="14.00"> %b.046.i.i = phi i32 [ %divtmp44.i.i, %ifcont17.i.i ], [ %base.160.i,</text>
<text xml:space="preserve" text-anchor="start" x="541.25" y="-1629.7" font-family="Courier,monospace" font-size="14.00">... %then11.i ]</text>
<text xml:space="preserve" text-anchor="start" x="541.25" y="-1613.2" font-family="Courier,monospace" font-size="14.00"> %result.045.i.i = phi i32 [ %result.1.i.i, %ifcont17.i.i ], [ 0, %then11.i ]</text>
<text xml:space="preserve" text-anchor="start" x="541.25" y="-1596.7" font-family="Courier,monospace" font-size="14.00"> %a.147.i.i = srem i32 %result.0.pn.i, %1</text>
<text xml:space="preserve" text-anchor="start" x="541.25" y="-1580.2" font-family="Courier,monospace" font-size="14.00"> %modtmp13.i.i = and i32 %b.046.i.i, 1</text>
<text xml:space="preserve" text-anchor="start" x="541.25" y="-1563.7" font-family="Courier,monospace" font-size="14.00"> %eqtmp14.not.i.i = icmp eq i32 %modtmp13.i.i, 0</text>
<text xml:space="preserve" text-anchor="start" x="541.25" y="-1547.2" font-family="Courier,monospace" font-size="14.00"> br i1 %eqtmp14.not.i.i, label %ifcont17.i.i, label %then15.i.i</text>
<polyline fill="none" stroke="#b70d28" points="533.25,-1540 1184.5,-1540"/>
<text xml:space="preserve" text-anchor="middle" x="695.88" y="-1522.7" font-family="Courier,monospace" font-size="14.00">T</text>
<polyline fill="none" stroke="#b70d28" points="858.5,-1515.5 858.5,-1540"/>
<text xml:space="preserve" text-anchor="middle" x="1021.12" y="-1522.7" font-family="Courier,monospace" font-size="14.00">F</text>
</g>
<!-- Node0x563588ec3110&#45;&gt;Node0x563588ec31a0 -->
<g id="edge9" class="edge">
<title>Node0x563588ec3110:s1&#45;&gt;Node0x563588ec31a0</title>
<path fill="none" stroke="black" d="M862.38,-1757.5C862.38,-1749.41 862.31,-1741.06 862.21,-1732.65"/>
<polygon fill="black" stroke="black" points="865.71,-1732.63 862.06,-1722.68 858.71,-1732.73 865.71,-1732.63"/>
</g>
<!-- Node0x563588ec3690 -->
<g id="node9" class="node">
<title>Node0x563588ec3690</title>
<polygon fill="#bb1b2c" fill-opacity="0.439216" stroke="#b70d28" points="529.62,-1203.5 529.62,-1359.5 1156.12,-1359.5 1156.12,-1203.5 529.62,-1203.5"/>
<text xml:space="preserve" text-anchor="start" x="537.62" y="-1342.2" font-family="Courier,monospace" font-size="14.00">ifcont17.i.i:</text>
<polyline fill="none" stroke="#b70d28" points="529.62,-1335 1156.12,-1335"/>
<text xml:space="preserve" text-anchor="start" x="537.62" y="-1317.7" font-family="Courier,monospace" font-size="14.00">%result.1.i.i = phi i32 [ %modtmp22.i.i, %then15.i.i ], [ %result.045.i.i,</text>
<text xml:space="preserve" text-anchor="start" x="537.62" y="-1301.2" font-family="Courier,monospace" font-size="14.00">... %loopbody.i.i ]</text>
<text xml:space="preserve" text-anchor="start" x="537.62" y="-1284.7" font-family="Courier,monospace" font-size="14.00"> %addtmp25.i.i = shl i32 %a.147.i.i, 1</text>
<text xml:space="preserve" text-anchor="start" x="537.62" y="-1268.2" font-family="Courier,monospace" font-size="14.00"> %divtmp44.i.i = lshr i32 %b.046.i.i, 1</text>
<text xml:space="preserve" text-anchor="start" x="537.62" y="-1251.7" font-family="Courier,monospace" font-size="14.00"> %gttmp.not.i.i = icmp eq i32 %divtmp44.i.i, 0</text>
<text xml:space="preserve" text-anchor="start" x="537.62" y="-1235.2" font-family="Courier,monospace" font-size="14.00"> br i1 %gttmp.not.i.i, label %ifcont13.i, label %loopbody.i.i</text>
<polyline fill="none" stroke="#b70d28" points="529.62,-1228 1156.12,-1228"/>
<text xml:space="preserve" text-anchor="middle" x="686.25" y="-1210.7" font-family="Courier,monospace" font-size="14.00">T</text>
<polyline fill="none" stroke="#b70d28" points="842.88,-1203.5 842.88,-1228"/>
<text xml:space="preserve" text-anchor="middle" x="999.5" y="-1210.7" font-family="Courier,monospace" font-size="14.00">F</text>
</g>
<!-- Node0x563588ec31a0&#45;&gt;Node0x563588ec3690 -->
<g id="edge10" class="edge">
<title>Node0x563588ec31a0:s0&#45;&gt;Node0x563588ec3690</title>
<path fill="none" stroke="black" d="M695.88,-1515C695.88,-1461.05 724.5,-1409.45 756.48,-1368.62"/>
<polygon fill="black" stroke="black" points="759.08,-1370.97 762.62,-1360.99 753.62,-1366.59 759.08,-1370.97"/>
</g>
<!-- Node0x563588ec3e40 -->
<g id="node10" class="node">
<title>Node0x563588ec3e40</title>
<polygon fill="#c32e31" fill-opacity="0.439216" stroke="#3d50c3" points="791.5,-1396.5 791.5,-1478.5 1228.25,-1478.5 1228.25,-1396.5 791.5,-1396.5"/>
<text xml:space="preserve" text-anchor="start" x="799.5" y="-1461.2" font-family="Courier,monospace" font-size="14.00">then15.i.i:</text>
<polyline fill="none" stroke="#3d50c3" points="791.5,-1454 1228.25,-1454"/>
<text xml:space="preserve" text-anchor="start" x="799.5" y="-1436.7" font-family="Courier,monospace" font-size="14.00">%addtmp20.i.i = add i32 %a.147.i.i, %result.045.i.i</text>
<text xml:space="preserve" text-anchor="start" x="799.5" y="-1420.2" font-family="Courier,monospace" font-size="14.00"> %modtmp22.i.i = srem i32 %addtmp20.i.i, %1</text>
<text xml:space="preserve" text-anchor="start" x="799.5" y="-1403.7" font-family="Courier,monospace" font-size="14.00"> br label %ifcont17.i.i</text>
</g>
<!-- Node0x563588ec31a0&#45;&gt;Node0x563588ec3e40 -->
<g id="edge11" class="edge">
<title>Node0x563588ec31a0:s1&#45;&gt;Node0x563588ec3e40</title>
<path fill="none" stroke="black" d="M1021.12,-1515C1021.12,-1506.88 1020.5,-1498.32 1019.54,-1489.99"/>
<polygon fill="black" stroke="black" points="1023.04,-1489.78 1018.25,-1480.33 1016.1,-1490.71 1023.04,-1489.78"/>
</g>
<!-- Node0x563588ec3690&#45;&gt;Node0x563588ec3020 -->
<g id="edge13" class="edge">
<title>Node0x563588ec3690:s0&#45;&gt;Node0x563588ec3020</title>
<path fill="none" stroke="black" d="M686.25,-1203C686.25,-1193.99 684.36,-1185.28 681.15,-1176.98"/>
<polygon fill="black" stroke="black" points="684.42,-1175.71 677.07,-1168.09 678.06,-1178.64 684.42,-1175.71"/>
</g>
<!-- Node0x563588ec3690&#45;&gt;Node0x563588ec31a0 -->
<g id="edge14" class="edge">
<title>Node0x563588ec3690:s1&#45;&gt;Node0x563588ec31a0</title>
<path fill="none" stroke="black" d="M999.5,-1202.5C999.5,-1185.1 1143.86,-1191.15 1156.12,-1203.5 1205.15,-1252.84 1202.89,-1308.51 1156.12,-1360 1100.1,-1421.69 838.9,-1334.31 782.88,-1396 755.43,-1426.22 761.25,-1466.82 778.45,-1504.99"/>
<polygon fill="black" stroke="black" points="775.19,-1506.28 782.67,-1513.79 781.5,-1503.26 775.19,-1506.28"/>
</g>
<!-- Node0x563588ec3e40&#45;&gt;Node0x563588ec3690 -->
<g id="edge12" class="edge">
<title>Node0x563588ec3e40&#45;&gt;Node0x563588ec3690</title>
<path fill="none" stroke="black" d="M966,-1396.04C956.37,-1387.16 945.83,-1377.44 935.1,-1367.54"/>
<polygon fill="black" stroke="black" points="937.7,-1365.18 927.97,-1360.97 932.95,-1370.33 937.7,-1365.18"/>
</g>
<!-- Node0x563588e8b3e0&#45;&gt;Node0x563588e8da70 -->
<g id="edge23" class="edge">
<title>Node0x563588e8b3e0:s0&#45;&gt;Node0x563588e8da70</title>
<path fill="none" stroke="black" d="M308.25,-156.25C288.73,-156.25 278.6,-138.32 273.36,-118.53"/>
<polygon fill="black" stroke="black" points="276.82,-117.94 271.25,-108.93 269.98,-119.44 276.82,-117.94"/>
</g>
<!-- Node0x563588e8b3e0&#45;&gt;Node0x563588e8b810 -->
<g id="edge24" class="edge">
<title>Node0x563588e8b3e0:s1&#45;&gt;Node0x563588e8b810</title>
<path fill="none" stroke="black" d="M894.75,-156.25C1133.35,-156.25 1255.88,-314.9 1255.88,-553.5 1255.88,-1619.25 1255.88,-1619.25 1255.88,-1619.25 1255.88,-1803.55 1065.19,-1905.48 889.13,-1960.32"/>
<polygon fill="black" stroke="black" points="888.34,-1956.9 879.8,-1963.18 890.39,-1963.6 888.34,-1956.9"/>
</g>
<!-- Node0x563588ec1190 -->
<g id="node13" class="node">
<title>Node0x563588ec1190</title>
<polygon fill="#b70d28" fill-opacity="0.439216" stroke="#b70d28" points="486.38,-632.5 486.38,-838 1129.38,-838 1129.38,-632.5 486.38,-632.5"/>
<text xml:space="preserve" text-anchor="start" x="494.38" y="-820.7" font-family="Courier,monospace" font-size="14.00">loopbody.i41.i:</text>
<polyline fill="none" stroke="#b70d28" points="486.38,-813.5 1129.38,-813.5"/>
<text xml:space="preserve" text-anchor="start" x="494.38" y="-796.2" font-family="Courier,monospace" font-size="14.00">%a.147.i42.i = phi i32 [ %spec.select.i.i, %default.next5.i39.i ], [</text>
<text xml:space="preserve" text-anchor="start" x="494.38" y="-779.7" font-family="Courier,monospace" font-size="14.00">... %modtmp27.i53.i, %ifcont17.i50.i ]</text>
<text xml:space="preserve" text-anchor="start" x="494.38" y="-763.2" font-family="Courier,monospace" font-size="14.00"> %b.046.i43.i = phi i32 [ %base.160.i, %default.next5.i39.i ], [</text>
<text xml:space="preserve" text-anchor="start" x="494.38" y="-746.7" font-family="Courier,monospace" font-size="14.00">... %divtmp44.i54.i, %ifcont17.i50.i ]</text>
<text xml:space="preserve" text-anchor="start" x="494.38" y="-730.2" font-family="Courier,monospace" font-size="14.00"> %result.045.i44.i = phi i32 [ 0, %default.next5.i39.i ], [ %result.1.i51.i,</text>
<text xml:space="preserve" text-anchor="start" x="494.38" y="-713.7" font-family="Courier,monospace" font-size="14.00">... %ifcont17.i50.i ]</text>
<text xml:space="preserve" text-anchor="start" x="494.38" y="-697.2" font-family="Courier,monospace" font-size="14.00"> %modtmp13.i45.i = and i32 %b.046.i43.i, 1</text>
<text xml:space="preserve" text-anchor="start" x="494.38" y="-680.7" font-family="Courier,monospace" font-size="14.00"> %eqtmp14.not.i46.i = icmp eq i32 %modtmp13.i45.i, 0</text>
<text xml:space="preserve" text-anchor="start" x="494.38" y="-664.2" font-family="Courier,monospace" font-size="14.00"> br i1 %eqtmp14.not.i46.i, label %ifcont17.i50.i, label %then15.i47.i</text>
<polyline fill="none" stroke="#b70d28" points="486.38,-657 1129.38,-657"/>
<text xml:space="preserve" text-anchor="middle" x="647" y="-639.7" font-family="Courier,monospace" font-size="14.00">T</text>
<polyline fill="none" stroke="#b70d28" points="807.62,-632.5 807.62,-657"/>
<text xml:space="preserve" text-anchor="middle" x="968.25" y="-639.7" font-family="Courier,monospace" font-size="14.00">F</text>
</g>
<!-- Node0x563588ec2c60&#45;&gt;Node0x563588ec1190 -->
<g id="edge17" class="edge">
<title>Node0x563588ec2c60&#45;&gt;Node0x563588ec1190</title>
<path fill="none" stroke="black" d="M806.46,-874.5C806.54,-866.52 806.63,-858.09 806.71,-849.5"/>
<polygon fill="black" stroke="black" points="810.21,-849.69 806.82,-839.65 803.21,-849.62 810.21,-849.69"/>
</g>
<!-- Node0x563588ec3520 -->
<g id="node14" class="node">
<title>Node0x563588ec3520</title>
<polygon fill="#b70d28" fill-opacity="0.439216" stroke="#b70d28" points="460.12,-304 460.12,-476.5 1053.62,-476.5 1053.62,-304 460.12,-304"/>
<text xml:space="preserve" text-anchor="start" x="468.12" y="-459.2" font-family="Courier,monospace" font-size="14.00">ifcont17.i50.i:</text>
<polyline fill="none" stroke="#b70d28" points="460.12,-452 1053.62,-452"/>
<text xml:space="preserve" text-anchor="start" x="468.12" y="-434.7" font-family="Courier,monospace" font-size="14.00">%result.1.i51.i = phi i32 [ %modtmp22.i49.i, %then15.i47.i ], [</text>
<text xml:space="preserve" text-anchor="start" x="468.12" y="-418.2" font-family="Courier,monospace" font-size="14.00">... %result.045.i44.i, %loopbody.i41.i ]</text>
<text xml:space="preserve" text-anchor="start" x="468.12" y="-401.7" font-family="Courier,monospace" font-size="14.00"> %addtmp25.i52.i = shl i32 %a.147.i42.i, 1</text>
<text xml:space="preserve" text-anchor="start" x="468.12" y="-385.2" font-family="Courier,monospace" font-size="14.00"> %modtmp27.i53.i = srem i32 %addtmp25.i52.i, %1</text>
<text xml:space="preserve" text-anchor="start" x="468.12" y="-368.7" font-family="Courier,monospace" font-size="14.00"> %divtmp44.i54.i = lshr i32 %b.046.i43.i, 1</text>
<text xml:space="preserve" text-anchor="start" x="468.12" y="-352.2" font-family="Courier,monospace" font-size="14.00"> %gttmp.not.i55.i = icmp eq i32 %divtmp44.i54.i, 0</text>
<text xml:space="preserve" text-anchor="start" x="468.12" y="-335.7" font-family="Courier,monospace" font-size="14.00"> br i1 %gttmp.not.i55.i, label %mulMod.exit57.i, label %loopbody.i41.i</text>
<polyline fill="none" stroke="#b70d28" points="460.12,-328.5 1053.62,-328.5"/>
<text xml:space="preserve" text-anchor="middle" x="608.25" y="-311.2" font-family="Courier,monospace" font-size="14.00">T</text>
<polyline fill="none" stroke="#b70d28" points="756.38,-304 756.38,-328.5"/>
<text xml:space="preserve" text-anchor="middle" x="905" y="-311.2" font-family="Courier,monospace" font-size="14.00">F</text>
</g>
<!-- Node0x563588ec1190&#45;&gt;Node0x563588ec3520 -->
<g id="edge18" class="edge">
<title>Node0x563588ec1190:s0&#45;&gt;Node0x563588ec3520</title>
<path fill="none" stroke="black" d="M647,-632C647,-581.06 667.61,-529.09 690.97,-486.54"/>
<polygon fill="black" stroke="black" points="693.87,-488.52 695.73,-478.09 687.77,-485.08 693.87,-488.52"/>
</g>
<!-- Node0x563588ec56e0 -->
<g id="node15" class="node">
<title>Node0x563588ec56e0</title>
<polygon fill="#be242e" fill-opacity="0.439216" stroke="#3d50c3" points="727.75,-513.5 727.75,-595.5 1214,-595.5 1214,-513.5 727.75,-513.5"/>
<text xml:space="preserve" text-anchor="start" x="735.75" y="-578.2" font-family="Courier,monospace" font-size="14.00">then15.i47.i:</text>
<polyline fill="none" stroke="#3d50c3" points="727.75,-571 1214,-571"/>
<text xml:space="preserve" text-anchor="start" x="735.75" y="-553.7" font-family="Courier,monospace" font-size="14.00">%addtmp20.i48.i = add i32 %result.045.i44.i, %a.147.i42.i</text>
<text xml:space="preserve" text-anchor="start" x="735.75" y="-537.2" font-family="Courier,monospace" font-size="14.00"> %modtmp22.i49.i = srem i32 %addtmp20.i48.i, %1</text>
<text xml:space="preserve" text-anchor="start" x="735.75" y="-520.7" font-family="Courier,monospace" font-size="14.00"> br label %ifcont17.i50.i</text>
</g>
<!-- Node0x563588ec1190&#45;&gt;Node0x563588ec56e0 -->
<g id="edge19" class="edge">
<title>Node0x563588ec1190:s1&#45;&gt;Node0x563588ec56e0</title>
<path fill="none" stroke="black" d="M968.25,-632C968.25,-624.05 968.39,-615.64 968.61,-607.42"/>
<polygon fill="black" stroke="black" points="972.11,-607.6 968.92,-597.5 965.11,-607.39 972.11,-607.6"/>
</g>
<!-- Node0x563588ec3520&#45;&gt;Node0x563588e8b3e0 -->
<g id="edge21" class="edge">
<title>Node0x563588ec3520:s0&#45;&gt;Node0x563588e8b3e0</title>
<path fill="none" stroke="black" d="M608.25,-303.5C608.25,-295.44 608.03,-287 607.67,-278.62"/>
<polygon fill="black" stroke="black" points="611.17,-278.58 607.17,-268.77 604.18,-278.93 611.17,-278.58"/>
</g>
<!-- Node0x563588ec3520&#45;&gt;Node0x563588ec1190 -->
<g id="edge22" class="edge">
<title>Node0x563588ec3520:s1&#45;&gt;Node0x563588ec1190</title>
<path fill="none" stroke="black" d="M905,-303C905,-286.49 1041.99,-292.28 1053.62,-304 1107.81,-358.55 1105,-419.8 1053.62,-477 1003.63,-532.66 768.87,-457.34 718.88,-513 691.26,-543.75 698.71,-584.16 718.09,-622.02"/>
<polygon fill="black" stroke="black" points="714.99,-623.65 722.83,-630.77 721.14,-620.31 714.99,-623.65"/>
</g>
<!-- Node0x563588ec56e0&#45;&gt;Node0x563588ec3520 -->
<g id="edge20" class="edge">
<title>Node0x563588ec56e0&#45;&gt;Node0x563588ec3520</title>
<path fill="none" stroke="black" d="M917.7,-513.18C905.62,-504.02 892.3,-493.92 878.65,-483.57"/>
<polygon fill="black" stroke="black" points="880.93,-480.91 870.85,-477.66 876.7,-486.49 880.93,-480.91"/>
</g>
</g>
</svg>
