<?xml version="1.0" encoding="UTF-8" standalone="no"?>
<!DOCTYPE svg PUBLIC "-//W3C//DTD SVG 1.1//EN"
 "http://www.w3.org/Graphics/SVG/1.1/DTD/svg11.dtd">
<!-- Generated by graphviz version 14.1.5 (0)
 -->
<!-- Title: CFG for &#39;bbsBits&#39; function Pages: 1 -->
<svg width="1245pt" height="1319pt"
 viewBox="0.00 0.00 1245.00 1319.00" xmlns="http://www.w3.org/2000/svg" xmlns:xlink="http://www.w3.org/1999/xlink">
<g id="graph0" class="graph" transform="scale(1 1) rotate(0) translate(4 1314.5)">
<title>CFG for &#39;bbsBits&#39; function</title>
<polygon fill="white" stroke="none" points="-4,4 -4,-1314.5 1240.5,-1314.5 1240.5,4 -4,4"/>
<text xml:space="preserve" text-anchor="middle" x="618.25" y="-7.2" font-family="Times,serif" font-size="14.00">CFG for &#39;bbsBits&#39; function</text>
<!-- Node0x5557898d4e00 -->
<g id="node1" class="node">
<title>Node0x5557898d4e00</title>
<polygon fill="#e8765c" fill-opacity="0.439216" stroke="#3d50c3" points="613.5,-1220 613.5,-1310 1124.5,-1310 1124.5,-1220 613.5,-1220"/>
<text xml:space="preserve" text-anchor="start" x="621.5" y="-1292.7" font-family="Courier,monospace" font-size="14.00">entry:</text>
<polyline fill="none" stroke="#3d50c3" points="613.5,-1285.5 1124.5,-1285.5"/>
<text xml:space="preserve" text-anchor="start" x="621.5" y="-1268.2" font-family="Courier,monospace" font-size="14.00">%lttmp830 = icmp sgt i32 %2, 0</text>
<text xml:space="preserve" text-anchor="start" x="621.5" y="-1251.7" font-family="Courier,monospace" font-size="14.00"> br i1 %lttmp830, label %loopbody.preheader, label %loopexit</text>
<polyline fill="none" stroke="#3d50c3" points="613.5,-1244.5 1124.5,-1244.5"/>
<text xml:space="preserve" text-anchor="middle" x="741.12" y="-1227.2" font-family="Courier,monospace" font-size="14.00">T</text>
<polyline fill="none" stroke="#3d50c3" points="868.75,-1220 868.75,-1244.5"/>
<text xml:space="preserve" text-anchor="middle" x="996.38" y="-1227.2" font-family="Courier,monospace" font-size="14.00">F</text>
</g>
<!-- Node0x5557898d4970 -->
<g id="node2" class="node">
<title>Node0x5557898d4970</title>
<polygon fill="#e97a5f" fill-opacity="0.439216" stroke="#3d50c3" points="474.75,-1068 474.75,-1183 837.25,-1183 837.25,-1068 474.75,-1068"/>
<text xml:space="preserve" text-anchor="start" x="482.75" y="-1165.7" font-family="Courier,monospace" font-size="14.00">loopbody.preheader:</text>
<polyline fill="none" stroke="#3d50c3" points="474.75,-1158.5 837.25,-1158.5"/>
<text xml:space="preserve" text-anchor="start" x="482.75" y="-1141.2" font-family="Courier,monospace" font-size="14.00">%modtmp = srem i32 %0, %1</text>
<text xml:space="preserve" text-anchor="start" x="482.75" y="-1124.7" font-family="Courier,monospace" font-size="14.00"> %lttmp = icmp slt i32 %modtmp, 0</text>
<text xml:space="preserve" text-anchor="start" x="482.75" y="-1108.2" font-family="Courier,monospace" font-size="14.00"> %addtmp = select i1 %lttmp, i32 %1, i32 0</text>
<text xml:space="preserve" text-anchor="start" x="482.75" y="-1091.7" font-family="Courier,monospace" font-size="14.00"> %spec.select = add i32 %addtmp, %modtmp</text>
<text xml:space="preserve" text-anchor="start" x="482.75" y="-1075.2" font-family="Courier,monospace" font-size="14.00"> br label %loopbody</text>
</g>
<!-- Node0x5557898d4e00&#45;&gt;Node0x5557898d4970 -->
<g id="edge1" class="edge">
<title>Node0x5557898d4e00:s0&#45;&gt;Node0x5557898d4970</title>
<path fill="none" stroke="black" d="M612.5,-1232.25C591.58,-1232.25 595.25,-1214.34 606.81,-1193.26"/>
<polygon fill="black" stroke="black" points="609.79,-1195.1 611.85,-1184.7 603.76,-1191.54 609.79,-1195.1"/>
</g>
<!-- Node0x5557898d6c40 -->
<g id="node3" class="node">
<title>Node0x5557898d6c40</title>
<polygon fill="#e8765c" fill-opacity="0.439216" stroke="#3d50c3" points="659.5,-25 659.5,-90.5 1236.5,-90.5 1236.5,-25 659.5,-25"/>
<text xml:space="preserve" text-anchor="start" x="667.5" y="-73.2" font-family="Courier,monospace" font-size="14.00">loopexit:</text>
<polyline fill="none" stroke="#3d50c3" points="659.5,-66 1236.5,-66"/>
<text xml:space="preserve" text-anchor="start" x="667.5" y="-48.7" font-family="Courier,monospace" font-size="14.00">%result.0.lcssa = phi i32 [ 0, %entry ], [ %modtmp17, %mulMod.exit ]</text>
<text xml:space="preserve" text-anchor="start" x="667.5" y="-32.2" font-family="Courier,monospace" font-size="14.00"> ret i32 %result.0.lcssa</text>
</g>
<!-- Node0x5557898d4e00&#45;&gt;Node0x5557898d6c40 -->
<g id="edge2" class="edge">
<title>Node0x5557898d4e00:s1&#45;&gt;Node0x5557898d6c40</title>
<path fill="none" stroke="black" d="M996.38,-1219.5C996.38,-1099.99 1039,-1073.51 1039,-954 1039,-954 1039,-954 1039,-414 1039,-286.17 1074.35,-242.71 1020,-127 1015.22,-116.83 1008.2,-107.41 1000.39,-99.02"/>
<polygon fill="black" stroke="black" points="1002.99,-96.66 993.45,-92.05 998.03,-101.6 1002.99,-96.66"/>
</g>
<!-- Node0x5557898d4fa0 -->
<g id="node4" class="node">
<title>Node0x5557898d4fa0</title>
<polygon fill="#d24b40" fill-opacity="0.439216" stroke="#3d50c3" points="282.25,-875 282.25,-1031 941.75,-1031 941.75,-875 282.25,-875"/>
<text xml:space="preserve" text-anchor="start" x="290.25" y="-1013.7" font-family="Courier,monospace" font-size="14.00">loopbody:</text>
<polyline fill="none" stroke="#3d50c3" points="282.25,-1006.5 941.75,-1006.5"/>
<text xml:space="preserve" text-anchor="start" x="290.25" y="-989.2" font-family="Courier,monospace" font-size="14.00">%seed.133 = phi i32 [ %result.0.lcssa.i, %mulMod.exit ], [ %spec.select,</text>
<text xml:space="preserve" text-anchor="start" x="290.25" y="-972.7" font-family="Courier,monospace" font-size="14.00">... %loopbody.preheader ]</text>
<text xml:space="preserve" text-anchor="start" x="290.25" y="-956.2" font-family="Courier,monospace" font-size="14.00"> %i.032 = phi i32 [ %addtmp19, %mulMod.exit ], [ 0, %loopbody.preheader ]</text>
<text xml:space="preserve" text-anchor="start" x="290.25" y="-939.7" font-family="Courier,monospace" font-size="14.00"> %result.031 = phi i32 [ %modtmp17, %mulMod.exit ], [ 0, %loopbody.preheader ]</text>
<text xml:space="preserve" text-anchor="start" x="290.25" y="-923.2" font-family="Courier,monospace" font-size="14.00"> %gttmp27.i = icmp sgt i32 %seed.133, 0</text>
<text xml:space="preserve" text-anchor="start" x="290.25" y="-906.7" font-family="Courier,monospace" font-size="14.00"> br i1 %gttmp27.i, label %loopbody.i, label %mulMod.exit</text>
<polyline fill="none" stroke="#3d50c3" points="282.25,-899.5 941.75,-899.5"/>
<text xml:space="preserve" text-anchor="middle" x="446.88" y="-882.2" font-family="Courier,monospace" font-size="14.00">T</text>
<polyline fill="none" stroke="#3d50c3" points="611.5,-875 611.5,-899.5"/>
<text xml:space="preserve" text-anchor="middle" x="776.62" y="-882.2" font-family="Courier,monospace" font-size="14.00">F</text>
</g>
<!-- Node0x5557898d4970&#45;&gt;Node0x5557898d4fa0 -->
<g id="edge3" class="edge">
<title>Node0x5557898d4970&#45;&gt;Node0x5557898d4fa0</title>
<path fill="none" stroke="black" d="M641.35,-1067.73C639.24,-1059.55 637.03,-1050.98 634.81,-1042.37"/>
<polygon fill="black" stroke="black" points="638.26,-1041.74 632.37,-1032.94 631.48,-1043.49 638.26,-1041.74"/>
</g>
<!-- Node0x5557898d7750 -->
<g id="node5" class="node">
<title>Node0x5557898d7750</title>
<polygon fill="#b70d28" fill-opacity="0.439216" stroke="#b70d28" points="0,-649 0,-838 610,-838 610,-649 0,-649"/>
<text xml:space="preserve" text-anchor="start" x="8" y="-820.7" font-family="Courier,monospace" font-size="14.00">loopbody.i:</text>
<polyline fill="none" stroke="#b70d28" points="0,-813.5 610,-813.5"/>
<text xml:space="preserve" text-anchor="start" x="8" y="-796.2" font-family="Courier,monospace" font-size="14.00">%addtmp12.pn.i = phi i32 [ %addtmp12.i, %ifcont.i ], [ %seed.133,</text>
<text xml:space="preserve" text-anchor="start" x="8" y="-779.7" font-family="Courier,monospace" font-size="14.00">... %loopbody ]</text>
<text xml:space="preserve" text-anchor="start" x="8" y="-763.2" font-family="Courier,monospace" font-size="14.00"> %b.029.i = phi i32 [ %divtmp25.i, %ifcont.i ], [ %seed.133, %loopbody ]</text>
<text xml:space="preserve" text-anchor="start" x="8" y="-746.7" font-family="Courier,monospace" font-size="14.00"> %result.028.i = phi i32 [ %result.1.i, %ifcont.i ], [ 0, %loopbody ]</text>
<text xml:space="preserve" text-anchor="start" x="8" y="-730.2" font-family="Courier,monospace" font-size="14.00"> %a.030.i = srem i32 %addtmp12.pn.i, %1</text>
<text xml:space="preserve" text-anchor="start" x="8" y="-713.7" font-family="Courier,monospace" font-size="14.00"> %modtmp5.i = and i32 %b.029.i, 1</text>
<text xml:space="preserve" text-anchor="start" x="8" y="-697.2" font-family="Courier,monospace" font-size="14.00"> %eqtmp.not.i = icmp eq i32 %modtmp5.i, 0</text>
<text xml:space="preserve" text-anchor="start" x="8" y="-680.7" font-family="Courier,monospace" font-size="14.00"> br i1 %eqtmp.not.i, label %ifcont.i, label %then.i</text>
<polyline fill="none" stroke="#b70d28" points="0,-673.5 610,-673.5"/>
<text xml:space="preserve" text-anchor="middle" x="152.12" y="-656.2" font-family="Courier,monospace" font-size="14.00">T</text>
<polyline fill="none" stroke="#b70d28" points="304.25,-649 304.25,-673.5"/>
<text xml:space="preserve" text-anchor="middle" x="456.88" y="-656.2" font-family="Courier,monospace" font-size="14.00">F</text>
</g>
<!-- Node0x5557898d4fa0&#45;&gt;Node0x5557898d7750 -->
<g id="edge4" class="edge">
<title>Node0x5557898d4fa0:s0&#45;&gt;Node0x5557898d7750</title>
<path fill="none" stroke="black" d="M281.25,-887.25C259.44,-887.25 255.15,-870.84 259.01,-849.15"/>
<polygon fill="black" stroke="black" points="262.38,-850.13 261.18,-839.6 255.55,-848.57 262.38,-850.13"/>
</g>
<!-- Node0x5557898d7080 -->
<g id="node6" class="node">
<title>Node0x5557898d7080</title>
<polygon fill="#d24b40" fill-opacity="0.439216" stroke="#3d50c3" points="401,-127.5 401,-300 1011,-300 1011,-127.5 401,-127.5"/>
<text xml:space="preserve" text-anchor="start" x="409" y="-282.7" font-family="Courier,monospace" font-size="14.00">mulMod.exit:</text>
<polyline fill="none" stroke="#3d50c3" points="401,-275.5 1011,-275.5"/>
<text xml:space="preserve" text-anchor="start" x="409" y="-258.2" font-family="Courier,monospace" font-size="14.00">%result.0.lcssa.i = phi i32 [ 0, %loopbody ], [ %result.1.i, %ifcont.i ]</text>
<text xml:space="preserve" text-anchor="start" x="409" y="-241.7" font-family="Courier,monospace" font-size="14.00"> %modtmp14 = srem i32 %result.0.lcssa.i, 2</text>
<text xml:space="preserve" text-anchor="start" x="409" y="-225.2" font-family="Courier,monospace" font-size="14.00"> %addtmp15 = add nsw i32 %modtmp14, %result.031</text>
<text xml:space="preserve" text-anchor="start" x="409" y="-208.7" font-family="Courier,monospace" font-size="14.00"> %modtmp17 = srem i32 %addtmp15, 1000000007</text>
<text xml:space="preserve" text-anchor="start" x="409" y="-192.2" font-family="Courier,monospace" font-size="14.00"> %addtmp19 = add nuw nsw i32 %i.032, 1</text>
<text xml:space="preserve" text-anchor="start" x="409" y="-175.7" font-family="Courier,monospace" font-size="14.00"> %lttmp8 = icmp slt i32 %addtmp19, %2</text>
<text xml:space="preserve" text-anchor="start" x="409" y="-159.2" font-family="Courier,monospace" font-size="14.00"> br i1 %lttmp8, label %loopbody, label %loopexit</text>
<polyline fill="none" stroke="#3d50c3" points="401,-152 1011,-152"/>
<text xml:space="preserve" text-anchor="middle" x="553.12" y="-134.7" font-family="Courier,monospace" font-size="14.00">T</text>
<polyline fill="none" stroke="#3d50c3" points="705.25,-127.5 705.25,-152"/>
<text xml:space="preserve" text-anchor="middle" x="857.88" y="-134.7" font-family="Courier,monospace" font-size="14.00">F</text>
</g>
<!-- Node0x5557898d4fa0&#45;&gt;Node0x5557898d7080 -->
<g id="edge5" class="edge">
<title>Node0x5557898d4fa0:s1&#45;&gt;Node0x5557898d7080</title>
<path fill="none" stroke="black" d="M776.62,-874.5C776.62,-673.5 743.82,-440.01 722.92,-311.69"/>
<polygon fill="black" stroke="black" points="726.38,-311.16 721.31,-301.86 719.47,-312.29 726.38,-311.16"/>
</g>
<!-- Node0x5557898d7950 -->
<g id="node7" class="node">
<title>Node0x5557898d7950</title>
<polygon fill="#b70d28" fill-opacity="0.439216" stroke="#b70d28" points="80.12,-337 80.12,-493 615.88,-493 615.88,-337 80.12,-337"/>
<text xml:space="preserve" text-anchor="start" x="88.12" y="-475.7" font-family="Courier,monospace" font-size="14.00">ifcont.i:</text>
<polyline fill="none" stroke="#b70d28" points="80.12,-468.5 615.88,-468.5"/>
<text xml:space="preserve" text-anchor="start" x="88.12" y="-451.2" font-family="Courier,monospace" font-size="14.00">%result.1.i = phi i32 [ %modtmp9.i, %then.i ], [ %result.028.i,</text>
<text xml:space="preserve" text-anchor="start" x="88.12" y="-434.7" font-family="Courier,monospace" font-size="14.00">... %loopbody.i ]</text>
<text xml:space="preserve" text-anchor="start" x="88.12" y="-418.2" font-family="Courier,monospace" font-size="14.00"> %addtmp12.i = shl i32 %a.030.i, 1</text>
<text xml:space="preserve" text-anchor="start" x="88.12" y="-401.7" font-family="Courier,monospace" font-size="14.00"> %divtmp25.i = lshr i32 %b.029.i, 1</text>
<text xml:space="preserve" text-anchor="start" x="88.12" y="-385.2" font-family="Courier,monospace" font-size="14.00"> %gttmp.not.i = icmp eq i32 %divtmp25.i, 0</text>
<text xml:space="preserve" text-anchor="start" x="88.12" y="-368.7" font-family="Courier,monospace" font-size="14.00"> br i1 %gttmp.not.i, label %mulMod.exit, label %loopbody.i</text>
<polyline fill="none" stroke="#b70d28" points="80.12,-361.5 615.88,-361.5"/>
<text xml:space="preserve" text-anchor="middle" x="213.75" y="-344.2" font-family="Courier,monospace" font-size="14.00">T</text>
<polyline fill="none" stroke="#b70d28" points="347.38,-337 347.38,-361.5"/>
<text xml:space="preserve" text-anchor="middle" x="481.5" y="-344.2" font-family="Courier,monospace" font-size="14.00">F</text>
</g>
<!-- Node0x5557898d7750&#45;&gt;Node0x5557898d7950 -->
<g id="edge6" class="edge">
<title>Node0x5557898d7750:s0&#45;&gt;Node0x5557898d7950</title>
<path fill="none" stroke="black" d="M152.12,-648.5C152.12,-595.5 132.44,-574.77 160,-529.5 166.16,-519.38 173.59,-510.05 181.9,-501.46"/>
<polygon fill="black" stroke="black" points="184.32,-503.99 189.04,-494.5 179.43,-498.97 184.32,-503.99"/>
</g>
<!-- Node0x5557898d87a0 -->
<g id="node8" class="node">
<title>Node0x5557898d87a0</title>
<polygon fill="#be242e" fill-opacity="0.439216" stroke="#3d50c3" points="168.62,-530 168.62,-612 539.38,-612 539.38,-530 168.62,-530"/>
<text xml:space="preserve" text-anchor="start" x="176.62" y="-594.7" font-family="Courier,monospace" font-size="14.00">then.i:</text>
<polyline fill="none" stroke="#3d50c3" points="168.62,-587.5 539.38,-587.5"/>
<text xml:space="preserve" text-anchor="start" x="176.62" y="-570.2" font-family="Courier,monospace" font-size="14.00">%addtmp.i = add i32 %a.030.i, %result.028.i</text>
<text xml:space="preserve" text-anchor="start" x="176.62" y="-553.7" font-family="Courier,monospace" font-size="14.00"> %modtmp9.i = srem i32 %addtmp.i, %1</text>
<text xml:space="preserve" text-anchor="start" x="176.62" y="-537.2" font-family="Courier,monospace" font-size="14.00"> br label %ifcont.i</text>
</g>
<!-- Node0x5557898d7750&#45;&gt;Node0x5557898d87a0 -->
<g id="edge7" class="edge">
<title>Node0x5557898d7750:s1&#45;&gt;Node0x5557898d87a0</title>
<path fill="none" stroke="black" d="M456.88,-648.5C456.88,-637.99 453.37,-628.75 447.66,-620.68"/>
<polygon fill="black" stroke="black" points="450.46,-618.57 441.33,-613.2 445.12,-623.09 450.46,-618.57"/>
</g>
<!-- Node0x5557898d7080&#45;&gt;Node0x5557898d6c40 -->
<g id="edge12" class="edge">
<title>Node0x5557898d7080:s1&#45;&gt;Node0x5557898d6c40</title>
<path fill="none" stroke="black" d="M1011.5,-139.75C1034.66,-139.75 1018.1,-119 996.1,-98.5"/>
<polygon fill="black" stroke="black" points="998.7,-96.13 988.93,-92.01 994,-101.32 998.7,-96.13"/>
</g>
<!-- Node0x5557898d7080&#45;&gt;Node0x5557898d4fa0 -->
<g id="edge11" class="edge">
<title>Node0x5557898d7080:s0&#45;&gt;Node0x5557898d4fa0</title>
<path fill="none" stroke="black" d="M553.12,-126.5C553.12,-109.6 412.91,-115.51 401,-127.5 346.81,-182.05 351.13,-241.98 401,-300.5 466.4,-377.25 559.6,-259.75 625,-336.5 750.92,-484.27 691.6,-732.22 646.52,-863.79"/>
<polygon fill="black" stroke="black" points="643.24,-862.58 643.26,-873.17 649.85,-864.88 643.24,-862.58"/>
</g>
<!-- Node0x5557898d7950&#45;&gt;Node0x5557898d7750 -->
<g id="edge10" class="edge">
<title>Node0x5557898d7950:s1&#45;&gt;Node0x5557898d7750</title>
<path fill="none" stroke="black" d="M616.62,-349.25C632.65,-349.25 619.77,-478.02 615.62,-493.5 599.88,-552.26 591.56,-570.04 548,-612.5 537.25,-622.98 525.48,-632.85 513.11,-642.09"/>
<polygon fill="black" stroke="black" points="511.25,-639.11 505.22,-647.82 515.37,-644.77 511.25,-639.11"/>
</g>
<!-- Node0x5557898d7950&#45;&gt;Node0x5557898d7080 -->
<g id="edge9" class="edge">
<title>Node0x5557898d7950:s0&#45;&gt;Node0x5557898d7080</title>
<path fill="none" stroke="black" d="M213.75,-336.5C213.75,-291.04 293.85,-262.45 389.43,-244.51"/>
<polygon fill="black" stroke="black" points="389.85,-247.99 399.06,-242.75 388.6,-241.1 389.85,-247.99"/>
</g>
<!-- Node0x5557898d87a0&#45;&gt;Node0x5557898d7950 -->
<g id="edge8" class="edge">
<title>Node0x5557898d87a0&#45;&gt;Node0x5557898d7950</title>
<path fill="none" stroke="black" d="M352.42,-529.54C352.12,-521.79 351.8,-513.41 351.46,-504.82"/>
<polygon fill="black" stroke="black" points="354.96,-504.82 351.08,-494.96 347.97,-505.09 354.96,-504.82"/>
</g>
</g>
</svg>
