<?xml version="1.0" encoding="UTF-8" standalone="no"?>
<!DOCTYPE svg PUBLIC "-//W3C//DTD SVG 1.1//EN"
 "http://www.w3.org/Graphics/SVG/1.1/DTD/svg11.dtd">
<!-- Generated by graphviz version 14.1.5 (0)
 -->
<!-- Title: CFG for &#39;intSqrt&#39; function Pages: 1 -->
<svg width="942pt" height="924pt"
 viewBox="0.00 0.00 942.00 924.00" xmlns="http://www.w3.org/2000/svg" xmlns:xlink="http://www.w3.org/1999/xlink">
<g id="graph0" class="graph" transform="scale(1 1) rotate(0) translate(4 920)">
<title>CFG for &#39;intSqrt&#39; function</title>
<polygon fill="white" stroke="none" points="-4,4 -4,-920 937.84,-920 937.84,4 -4,4"/>
<text xml:space="preserve" text-anchor="middle" x="466.92" y="-7.2" font-family="Times,serif" font-size="14.00">CFG for &#39;intSqrt&#39; function</text>
<!-- Node0x55687095a650 -->
<g id="node1" class="node">
<title>Node0x55687095a650</title>
<polygon fill="#d24b40" fill-opacity="0.439216" stroke="#3d50c3" points="102.62,-825.5 102.62,-915.5 522.88,-915.5 522.88,-825.5 102.62,-825.5"/>
<text xml:space="preserve" text-anchor="start" x="110.62" y="-898.2" font-family="Courier,monospace" font-size="14.00">entry:</text>
<polyline fill="none" stroke="#3d50c3" points="102.62,-891 522.88,-891"/>
<text xml:space="preserve" text-anchor="start" x="110.62" y="-873.7" font-family="Courier,monospace" font-size="14.00">%eqtmp = icmp eq i32 %0, 0</text>
<text xml:space="preserve" text-anchor="start" x="110.62" y="-857.2" font-family="Courier,monospace" font-size="14.00"> br i1 %eqtmp, label %common.ret, label %loopbody</text>
<polyline fill="none" stroke="#3d50c3" points="102.62,-850 522.88,-850"/>
<text xml:space="preserve" text-anchor="middle" x="207.25" y="-832.7" font-family="Courier,monospace" font-size="14.00">T</text>
<polyline fill="none" stroke="#3d50c3" points="311.88,-825.5 311.88,-850"/>
<text xml:space="preserve" text-anchor="middle" x="417" y="-832.7" font-family="Courier,monospace" font-size="14.00">F</text>
</g>
<!-- Node0x55687095a790 -->
<g id="node2" class="node">
<title>Node0x55687095a790</title>
<polygon fill="#d24b40" fill-opacity="0.439216" stroke="#3d50c3" points="0,-25 0,-90.5 527.5,-90.5 527.5,-25 0,-25"/>
<text xml:space="preserve" text-anchor="start" x="8" y="-73.2" font-family="Courier,monospace" font-size="14.00">common.ret:</text>
<polyline fill="none" stroke="#3d50c3" points="0,-66 527.5,-66"/>
<text xml:space="preserve" text-anchor="start" x="8" y="-48.7" font-family="Courier,monospace" font-size="14.00">%common.ret.op = phi i32 [ 0, %entry ], [ %result.1, %ifcont ]</text>
<text xml:space="preserve" text-anchor="start" x="8" y="-32.2" font-family="Courier,monospace" font-size="14.00"> ret i32 %common.ret.op</text>
</g>
<!-- Node0x55687095a650&#45;&gt;Node0x55687095a790 -->
<g id="edge1" class="edge">
<title>Node0x55687095a650:s0&#45;&gt;Node0x55687095a790</title>
<path fill="none" stroke="black" d="M207.25,-825C207.25,-807.58 195.85,-805.93 191.75,-789 162.56,-668.3 172.75,-634.43 172.75,-510.25 172.75,-510.25 172.75,-510.25 172.75,-385.25 172.75,-270.16 142.44,-230.99 191.75,-127 196.62,-116.73 203.77,-107.22 211.69,-98.76"/>
<polygon fill="black" stroke="black" points="214.13,-101.26 218.74,-91.73 209.19,-96.31 214.13,-101.26"/>
</g>
<!-- Node0x55687095acc0 -->
<g id="node3" class="node">
<title>Node0x55687095acc0</title>
<polygon fill="#b70d28" fill-opacity="0.439216" stroke="#b70d28" points="200.38,-599.5 200.38,-788.5 703.12,-788.5 703.12,-599.5 200.38,-599.5"/>
<text xml:space="preserve" text-anchor="start" x="208.38" y="-771.2" font-family="Courier,monospace" font-size="14.00">loopbody:</text>
<polyline fill="none" stroke="#b70d28" points="200.38,-764 703.12,-764"/>
<text xml:space="preserve" text-anchor="start" x="208.38" y="-746.7" font-family="Courier,monospace" font-size="14.00">%result.036 = phi i32 [ %result.1, %ifcont ], [ 0, %entry ]</text>
<text xml:space="preserve" text-anchor="start" x="208.38" y="-730.2" font-family="Courier,monospace" font-size="14.00"> %low.035 = phi i32 [ %low.1, %ifcont ], [ 0, %entry ]</text>
<text xml:space="preserve" text-anchor="start" x="208.38" y="-713.7" font-family="Courier,monospace" font-size="14.00"> %high.034 = phi i32 [ %high.1, %ifcont ], [ %0, %entry ]</text>
<text xml:space="preserve" text-anchor="start" x="208.38" y="-697.2" font-family="Courier,monospace" font-size="14.00"> %subtmp = sub i32 %high.034, %low.035</text>
<text xml:space="preserve" text-anchor="start" x="208.38" y="-680.7" font-family="Courier,monospace" font-size="14.00"> %divtmp = sdiv i32 %subtmp, 2</text>
<text xml:space="preserve" text-anchor="start" x="208.38" y="-664.2" font-family="Courier,monospace" font-size="14.00"> %addtmp = add i32 %divtmp, %low.035</text>
<text xml:space="preserve" text-anchor="start" x="208.38" y="-647.7" font-family="Courier,monospace" font-size="14.00"> %eqtmp9 = icmp eq i32 %addtmp, 0</text>
<text xml:space="preserve" text-anchor="start" x="208.38" y="-631.2" font-family="Courier,monospace" font-size="14.00"> br i1 %eqtmp9, label %ifcont, label %else</text>
<polyline fill="none" stroke="#b70d28" points="200.38,-624 703.12,-624"/>
<text xml:space="preserve" text-anchor="middle" x="326" y="-606.7" font-family="Courier,monospace" font-size="14.00">T</text>
<polyline fill="none" stroke="#b70d28" points="451.62,-599.5 451.62,-624"/>
<text xml:space="preserve" text-anchor="middle" x="577.25" y="-606.7" font-family="Courier,monospace" font-size="14.00">F</text>
</g>
<!-- Node0x55687095a650&#45;&gt;Node0x55687095acc0 -->
<g id="edge2" class="edge">
<title>Node0x55687095a650:s1&#45;&gt;Node0x55687095acc0</title>
<path fill="none" stroke="black" d="M417,-825C417,-816.72 417.67,-808.23 418.82,-799.76"/>
<polygon fill="black" stroke="black" points="422.23,-800.58 420.35,-790.15 415.32,-799.47 422.23,-800.58"/>
</g>
<!-- Node0x55687095aec0 -->
<g id="node4" class="node">
<title>Node0x55687095aec0</title>
<polygon fill="#b70d28" fill-opacity="0.439216" stroke="#b70d28" points="200.62,-127.5 200.62,-316.5 818.88,-316.5 818.88,-127.5 200.62,-127.5"/>
<text xml:space="preserve" text-anchor="start" x="208.62" y="-299.2" font-family="Courier,monospace" font-size="14.00">ifcont:</text>
<polyline fill="none" stroke="#b70d28" points="200.62,-292 818.88,-292"/>
<text xml:space="preserve" text-anchor="start" x="208.62" y="-274.7" font-family="Courier,monospace" font-size="14.00">%high.1 = phi i32 [ %subtmp22, %else16 ], [ %high.034, %then15 ], [</text>
<text xml:space="preserve" text-anchor="start" x="208.62" y="-258.2" font-family="Courier,monospace" font-size="14.00">... %high.034, %loopbody ]</text>
<text xml:space="preserve" text-anchor="start" x="208.62" y="-241.7" font-family="Courier,monospace" font-size="14.00"> %low.1 = phi i32 [ %low.035, %else16 ], [ %addtmp20, %then15 ], [ 1,</text>
<text xml:space="preserve" text-anchor="start" x="208.62" y="-225.2" font-family="Courier,monospace" font-size="14.00">... %loopbody ]</text>
<text xml:space="preserve" text-anchor="start" x="208.62" y="-208.7" font-family="Courier,monospace" font-size="14.00"> %result.1 = phi i32 [ %result.036, %else16 ], [ %addtmp, %then15 ], [ 0,</text>
<text xml:space="preserve" text-anchor="start" x="208.62" y="-192.2" font-family="Courier,monospace" font-size="14.00">... %loopbody ]</text>
<text xml:space="preserve" text-anchor="start" x="208.62" y="-175.7" font-family="Courier,monospace" font-size="14.00"> %letmp.not = icmp sgt i32 %low.1, %high.1</text>
<text xml:space="preserve" text-anchor="start" x="208.62" y="-159.2" font-family="Courier,monospace" font-size="14.00"> br i1 %letmp.not, label %common.ret, label %loopbody</text>
<polyline fill="none" stroke="#b70d28" points="200.62,-152 818.88,-152"/>
<text xml:space="preserve" text-anchor="middle" x="354.75" y="-134.7" font-family="Courier,monospace" font-size="14.00">T</text>
<polyline fill="none" stroke="#b70d28" points="508.88,-127.5 508.88,-152"/>
<text xml:space="preserve" text-anchor="middle" x="663.5" y="-134.7" font-family="Courier,monospace" font-size="14.00">F</text>
</g>
<!-- Node0x55687095acc0&#45;&gt;Node0x55687095aec0 -->
<g id="edge3" class="edge">
<title>Node0x55687095acc0:s0&#45;&gt;Node0x55687095aec0</title>
<path fill="none" stroke="black" d="M199.38,-611.75C169.58,-611.75 251.14,-376.27 269.75,-353 277.96,-342.74 287.21,-333.17 297.17,-324.27"/>
<polygon fill="black" stroke="black" points="299.24,-327.11 304.55,-317.94 294.68,-321.79 299.24,-327.11"/>
</g>
<!-- Node0x55687095bb80 -->
<g id="node5" class="node">
<title>Node0x55687095bb80</title>
<polygon fill="#bb1b2c" fill-opacity="0.439216" stroke="#b70d28" points="366.62,-456 366.62,-562.5 786.88,-562.5 786.88,-456 366.62,-456"/>
<text xml:space="preserve" text-anchor="start" x="374.62" y="-545.2" font-family="Courier,monospace" font-size="14.00">else:</text>
<polyline fill="none" stroke="#b70d28" points="366.62,-538 786.88,-538"/>
<text xml:space="preserve" text-anchor="start" x="374.62" y="-520.7" font-family="Courier,monospace" font-size="14.00">%divtmp13 = sdiv i32 %0, %addtmp</text>
<text xml:space="preserve" text-anchor="start" x="374.62" y="-504.2" font-family="Courier,monospace" font-size="14.00"> %letmp14.not = icmp sgt i32 %addtmp, %divtmp13</text>
<text xml:space="preserve" text-anchor="start" x="374.62" y="-487.7" font-family="Courier,monospace" font-size="14.00"> br i1 %letmp14.not, label %else16, label %then15</text>
<polyline fill="none" stroke="#b70d28" points="366.62,-480.5 786.88,-480.5"/>
<text xml:space="preserve" text-anchor="middle" x="471.25" y="-463.2" font-family="Courier,monospace" font-size="14.00">T</text>
<polyline fill="none" stroke="#b70d28" points="575.88,-456 575.88,-480.5"/>
<text xml:space="preserve" text-anchor="middle" x="681" y="-463.2" font-family="Courier,monospace" font-size="14.00">F</text>
</g>
<!-- Node0x55687095acc0&#45;&gt;Node0x55687095bb80 -->
<g id="edge4" class="edge">
<title>Node0x55687095acc0:s1&#45;&gt;Node0x55687095bb80</title>
<path fill="none" stroke="black" d="M577.25,-599C577.25,-590.95 577.23,-582.49 577.2,-574.12"/>
<polygon fill="black" stroke="black" points="580.7,-574.31 577.15,-564.32 573.7,-574.34 580.7,-574.31"/>
</g>
<!-- Node0x55687095aec0&#45;&gt;Node0x55687095a790 -->
<g id="edge7" class="edge">
<title>Node0x55687095aec0:s0&#45;&gt;Node0x55687095a790</title>
<path fill="none" stroke="black" d="M199.62,-139.75C176.38,-139.75 193.1,-119 215.28,-98.5"/>
<polygon fill="black" stroke="black" points="217.41,-101.29 222.51,-92.01 212.73,-96.08 217.41,-101.29"/>
</g>
<!-- Node0x55687095aec0&#45;&gt;Node0x55687095acc0 -->
<g id="edge8" class="edge">
<title>Node0x55687095aec0:s1&#45;&gt;Node0x55687095acc0</title>
<path fill="none" stroke="black" d="M819.12,-139.75C1007.52,-139.75 937.75,-439.18 795.75,-563 771.32,-584.3 743.06,-602.26 713.44,-617.38"/>
<polygon fill="black" stroke="black" points="712.1,-614.14 704.7,-621.72 715.21,-620.4 712.1,-614.14"/>
</g>
<!-- Node0x55687095bc00 -->
<g id="node6" class="node">
<title>Node0x55687095bc00</title>
<polygon fill="#c32e31" fill-opacity="0.439216" stroke="#3d50c3" points="278.38,-353.5 278.38,-419 583.12,-419 583.12,-353.5 278.38,-353.5"/>
<text xml:space="preserve" text-anchor="start" x="286.38" y="-401.7" font-family="Courier,monospace" font-size="14.00">else16:</text>
<polyline fill="none" stroke="#3d50c3" points="278.38,-394.5 583.12,-394.5"/>
<text xml:space="preserve" text-anchor="start" x="286.38" y="-377.2" font-family="Courier,monospace" font-size="14.00">%subtmp22 = add nsw i32 %addtmp, &#45;1</text>
<text xml:space="preserve" text-anchor="start" x="286.38" y="-360.7" font-family="Courier,monospace" font-size="14.00"> br label %ifcont</text>
</g>
<!-- Node0x55687095bb80&#45;&gt;Node0x55687095bc00 -->
<g id="edge5" class="edge">
<title>Node0x55687095bb80:s0&#45;&gt;Node0x55687095bc00</title>
<path fill="none" stroke="black" d="M471.25,-455.5C471.25,-446.49 468.61,-437.63 464.67,-429.43"/>
<polygon fill="black" stroke="black" points="467.76,-427.79 459.84,-420.76 461.65,-431.2 467.76,-427.79"/>
</g>
<!-- Node0x55687095bdf0 -->
<g id="node7" class="node">
<title>Node0x55687095bdf0</title>
<polygon fill="#c32e31" fill-opacity="0.439216" stroke="#3d50c3" points="601,-353.5 601,-419 864.5,-419 864.5,-353.5 601,-353.5"/>
<text xml:space="preserve" text-anchor="start" x="609" y="-401.7" font-family="Courier,monospace" font-size="14.00">then15:</text>
<polyline fill="none" stroke="#3d50c3" points="601,-394.5 864.5,-394.5"/>
<text xml:space="preserve" text-anchor="start" x="609" y="-377.2" font-family="Courier,monospace" font-size="14.00">%addtmp20 = add i32 %addtmp, 1</text>
<text xml:space="preserve" text-anchor="start" x="609" y="-360.7" font-family="Courier,monospace" font-size="14.00"> br label %ifcont</text>
</g>
<!-- Node0x55687095bb80&#45;&gt;Node0x55687095bdf0 -->
<g id="edge6" class="edge">
<title>Node0x55687095bb80:s1&#45;&gt;Node0x55687095bdf0</title>
<path fill="none" stroke="black" d="M681,-455.5C681,-445.88 684.3,-436.77 689.24,-428.51"/>
<polygon fill="black" stroke="black" points="691.99,-430.69 694.83,-420.49 686.24,-426.7 691.99,-430.69"/>
</g>
<!-- Node0x55687095bc00&#45;&gt;Node0x55687095aec0 -->
<g id="edge10" class="edge">
<title>Node0x55687095bc00&#45;&gt;Node0x55687095aec0</title>
<path fill="none" stroke="black" d="M446.36,-353.19C450.19,-345.33 454.5,-336.47 459.02,-327.18"/>
<polygon fill="black" stroke="black" points="462.11,-328.83 463.34,-318.31 455.82,-325.77 462.11,-328.83"/>
</g>
<!-- Node0x55687095bdf0&#45;&gt;Node0x55687095aec0 -->
<g id="edge9" class="edge">
<title>Node0x55687095bdf0&#45;&gt;Node0x55687095aec0</title>
<path fill="none" stroke="black" d="M688.43,-353C676.22,-344.12 662.31,-334 647.76,-323.41"/>
<polygon fill="black" stroke="black" points="649.99,-320.71 639.85,-317.66 645.88,-326.37 649.99,-320.71"/>
</g>
</g>
</svg>
