<?xml version="1.0" encoding="UTF-8" standalone="no"?>
<!DOCTYPE svg PUBLIC "-//W3C//DTD SVG 1.1//EN"
 "http://www.w3.org/Graphics/SVG/1.1/DTD/svg11.dtd">
<!-- Generated by graphviz version 14.1.5 (0)
 -->
<!-- Title: CFG for &#39;isPrime&#39; function Pages: 1 -->
<svg width="1033pt" height="977pt"
 viewBox="0.00 0.00 1033.00 977.00" xmlns="http://www.w3.org/2000/svg" xmlns:xlink="http://www.w3.org/1999/xlink">
<g id="graph0" class="graph" transform="scale(1 1) rotate(0) translate(4 972.5)">
<title>CFG for &#39;isPrime&#39; function</title>
<polygon fill="white" stroke="none" points="-4,4 -4,-972.5 1029.38,-972.5 1029.38,4 -4,4"/>
<text xml:space="preserve" text-anchor="middle" x="512.69" y="-7.2" font-family="Times,serif" font-size="14.00">CFG for &#39;isPrime&#39; function</text>
<!-- Node0x55980c7fdfd0 -->
<g id="node1" class="node">
<title>Node0x55980c7fdfd0</title>
<polygon fill="#b70d28" fill-opacity="0.439216" stroke="#b70d28" points="103.12,-878 103.12,-968 506.88,-968 506.88,-878 103.12,-878"/>
<text xml:space="preserve" text-anchor="start" x="111.12" y="-950.7" font-family="Courier,monospace" font-size="14.00">entry:</text>
<polyline fill="none" stroke="#b70d28" points="103.12,-943.5 506.88,-943.5"/>
<text xml:space="preserve" text-anchor="start" x="111.12" y="-926.2" font-family="Courier,monospace" font-size="14.00">%letmp = icmp slt i32 %0, 2</text>
<text xml:space="preserve" text-anchor="start" x="111.12" y="-909.7" font-family="Courier,monospace" font-size="14.00"> br i1 %letmp, label %common.ret, label %ifcont</text>
<polyline fill="none" stroke="#b70d28" points="103.12,-902.5 506.88,-902.5"/>
<text xml:space="preserve" text-anchor="middle" x="203.75" y="-885.2" font-family="Courier,monospace" font-size="14.00">T</text>
<polyline fill="none" stroke="#b70d28" points="304.38,-878 304.38,-902.5"/>
<text xml:space="preserve" text-anchor="middle" x="405.5" y="-885.2" font-family="Courier,monospace" font-size="14.00">F</text>
</g>
<!-- Node0x55980c7fe110 -->
<g id="node2" class="node">
<title>Node0x55980c7fe110</title>
<polygon fill="#b70d28" fill-opacity="0.439216" stroke="#b70d28" points="0,-25 0,-123.5 676,-123.5 676,-25 0,-25"/>
<text xml:space="preserve" text-anchor="start" x="8" y="-106.2" font-family="Courier,monospace" font-size="14.00">common.ret:</text>
<polyline fill="none" stroke="#b70d28" points="0,-99 676,-99"/>
<text xml:space="preserve" text-anchor="start" x="8" y="-81.7" font-family="Courier,monospace" font-size="14.00">%common.ret.op = phi i1 [ false, %ifcont6 ], [ false, %entry ], [ true,</text>
<text xml:space="preserve" text-anchor="start" x="8" y="-65.2" font-family="Courier,monospace" font-size="14.00">... %ifcont ], [ true, %loopcond.preheader ], [ %eqtmp18.not.not, %loopbody ], [</text>
<text xml:space="preserve" text-anchor="start" x="8" y="-48.7" font-family="Courier,monospace" font-size="14.00">... %eqtmp18.not.not, %loopcond ]</text>
<text xml:space="preserve" text-anchor="start" x="8" y="-32.2" font-family="Courier,monospace" font-size="14.00"> ret i1 %common.ret.op</text>
</g>
<!-- Node0x55980c7fdfd0&#45;&gt;Node0x55980c7fe110 -->
<g id="edge1" class="edge">
<title>Node0x55980c7fdfd0:s0&#45;&gt;Node0x55980c7fe110</title>
<path fill="none" stroke="black" d="M203.75,-877.5C203.75,-781.29 186,-757.96 186,-661.75 186,-661.75 186,-661.75 186,-381 186,-277.7 205.26,-248.83 258,-160 263.66,-150.47 270.55,-141.15 277.9,-132.37"/>
<polygon fill="black" stroke="black" points="280.45,-134.77 284.37,-124.93 275.17,-130.17 280.45,-134.77"/>
</g>
<!-- Node0x55980c7fe840 -->
<g id="node3" class="node">
<title>Node0x55980c7fe840</title>
<polygon fill="#be242e" fill-opacity="0.439216" stroke="#3d50c3" points="213.88,-751 213.88,-841 634.12,-841 634.12,-751 213.88,-751"/>
<text xml:space="preserve" text-anchor="start" x="221.88" y="-823.7" font-family="Courier,monospace" font-size="14.00">ifcont:</text>
<polyline fill="none" stroke="#3d50c3" points="213.88,-816.5 634.12,-816.5"/>
<text xml:space="preserve" text-anchor="start" x="221.88" y="-799.2" font-family="Courier,monospace" font-size="14.00">%letmp3 = icmp samesign ult i32 %0, 4</text>
<text xml:space="preserve" text-anchor="start" x="221.88" y="-782.7" font-family="Courier,monospace" font-size="14.00"> br i1 %letmp3, label %common.ret, label %ifcont6</text>
<polyline fill="none" stroke="#3d50c3" points="213.88,-775.5 634.12,-775.5"/>
<text xml:space="preserve" text-anchor="middle" x="318.5" y="-758.2" font-family="Courier,monospace" font-size="14.00">T</text>
<polyline fill="none" stroke="#3d50c3" points="423.12,-751 423.12,-775.5"/>
<text xml:space="preserve" text-anchor="middle" x="528.25" y="-758.2" font-family="Courier,monospace" font-size="14.00">F</text>
</g>
<!-- Node0x55980c7fdfd0&#45;&gt;Node0x55980c7fe840 -->
<g id="edge2" class="edge">
<title>Node0x55980c7fdfd0:s1&#45;&gt;Node0x55980c7fe840</title>
<path fill="none" stroke="black" d="M405.5,-877.5C405.5,-869.32 406.42,-860.78 407.85,-852.46"/>
<polygon fill="black" stroke="black" points="411.25,-853.27 409.78,-842.78 404.39,-851.9 411.25,-853.27"/>
</g>
<!-- Node0x55980c7fe840&#45;&gt;Node0x55980c7fe110 -->
<g id="edge3" class="edge">
<title>Node0x55980c7fe840:s0&#45;&gt;Node0x55980c7fe110</title>
<path fill="none" stroke="black" d="M212.88,-763.25C186.26,-763.25 249,-553.11 249,-526.5 249,-526.5 249,-526.5 249,-381 249,-292.34 283.93,-194.77 310.02,-134.25"/>
<polygon fill="black" stroke="black" points="313.2,-135.71 314.01,-125.15 306.79,-132.9 313.2,-135.71"/>
</g>
<!-- Node0x55980c7fe7e0 -->
<g id="node4" class="node">
<title>Node0x55980c7fe7e0</title>
<polygon fill="#c53334" fill-opacity="0.439216" stroke="#3d50c3" points="276.62,-607.5 276.62,-714 779.38,-714 779.38,-607.5 276.62,-607.5"/>
<text xml:space="preserve" text-anchor="start" x="284.62" y="-696.7" font-family="Courier,monospace" font-size="14.00">ifcont6:</text>
<polyline fill="none" stroke="#3d50c3" points="276.62,-689.5 779.38,-689.5"/>
<text xml:space="preserve" text-anchor="start" x="284.62" y="-672.2" font-family="Courier,monospace" font-size="14.00">%modtmp = and i32 %0, 1</text>
<text xml:space="preserve" text-anchor="start" x="284.62" y="-655.7" font-family="Courier,monospace" font-size="14.00"> %eqtmp = icmp eq i32 %modtmp, 0</text>
<text xml:space="preserve" text-anchor="start" x="284.62" y="-639.2" font-family="Courier,monospace" font-size="14.00"> br i1 %eqtmp, label %common.ret, label %loopcond.preheader</text>
<polyline fill="none" stroke="#3d50c3" points="276.62,-632 779.38,-632"/>
<text xml:space="preserve" text-anchor="middle" x="402.25" y="-614.7" font-family="Courier,monospace" font-size="14.00">T</text>
<polyline fill="none" stroke="#3d50c3" points="527.88,-607.5 527.88,-632"/>
<text xml:space="preserve" text-anchor="middle" x="653.5" y="-614.7" font-family="Courier,monospace" font-size="14.00">F</text>
</g>
<!-- Node0x55980c7fe840&#45;&gt;Node0x55980c7fe7e0 -->
<g id="edge4" class="edge">
<title>Node0x55980c7fe840:s1&#45;&gt;Node0x55980c7fe7e0</title>
<path fill="none" stroke="black" d="M528.25,-750.5C528.25,-742.45 528.24,-733.99 528.22,-725.62"/>
<polygon fill="black" stroke="black" points="531.72,-725.82 528.2,-715.82 524.72,-725.83 531.72,-725.82"/>
</g>
<!-- Node0x55980c7fe7e0&#45;&gt;Node0x55980c7fe110 -->
<g id="edge5" class="edge">
<title>Node0x55980c7fe7e0:s0&#45;&gt;Node0x55980c7fe110</title>
<path fill="none" stroke="black" d="M275.62,-619.75C251.42,-619.75 305.11,-275.72 328.15,-134.58"/>
<polygon fill="black" stroke="black" points="331.54,-135.5 329.71,-125.06 324.64,-134.37 331.54,-135.5"/>
</g>
<!-- Node0x55980c7ff300 -->
<g id="node5" class="node">
<title>Node0x55980c7ff300</title>
<polygon fill="#cc403a" fill-opacity="0.439216" stroke="#3d50c3" points="377.88,-480.5 377.88,-570.5 864.12,-570.5 864.12,-480.5 377.88,-480.5"/>
<text xml:space="preserve" text-anchor="start" x="385.88" y="-553.2" font-family="Courier,monospace" font-size="14.00">loopcond.preheader:</text>
<polyline fill="none" stroke="#3d50c3" points="377.88,-546 864.12,-546"/>
<text xml:space="preserve" text-anchor="start" x="385.88" y="-528.7" font-family="Courier,monospace" font-size="14.00">%letmp14.not31 = icmp samesign ult i32 %0, 9</text>
<text xml:space="preserve" text-anchor="start" x="385.88" y="-512.2" font-family="Courier,monospace" font-size="14.00"> br i1 %letmp14.not31, label %common.ret, label %loopbody</text>
<polyline fill="none" stroke="#3d50c3" points="377.88,-505 864.12,-505"/>
<text xml:space="preserve" text-anchor="middle" x="499" y="-487.7" font-family="Courier,monospace" font-size="14.00">T</text>
<polyline fill="none" stroke="#3d50c3" points="620.12,-480.5 620.12,-505"/>
<text xml:space="preserve" text-anchor="middle" x="741.75" y="-487.7" font-family="Courier,monospace" font-size="14.00">F</text>
</g>
<!-- Node0x55980c7fe7e0&#45;&gt;Node0x55980c7ff300 -->
<g id="edge6" class="edge">
<title>Node0x55980c7fe7e0:s1&#45;&gt;Node0x55980c7ff300</title>
<path fill="none" stroke="black" d="M653.5,-607C653.5,-598.51 651.93,-589.86 649.47,-581.53"/>
<polygon fill="black" stroke="black" points="652.84,-580.57 646.29,-572.24 646.22,-582.83 652.84,-580.57"/>
</g>
<!-- Node0x55980c7ff300&#45;&gt;Node0x55980c7fe110 -->
<g id="edge7" class="edge">
<title>Node0x55980c7ff300:s0&#45;&gt;Node0x55980c7fe110</title>
<path fill="none" stroke="black" d="M376.88,-492.75C341.42,-492.75 337.41,-250.98 337.52,-135.41"/>
<polygon fill="black" stroke="black" points="341.02,-135.48 337.55,-125.47 334.02,-135.47 341.02,-135.48"/>
</g>
<!-- Node0x55980c7ff4a0 -->
<g id="node6" class="node">
<title>Node0x55980c7ff4a0</title>
<polygon fill="#b70d28" fill-opacity="0.439216" stroke="#b70d28" points="456.62,-320.5 456.62,-443.5 1025.38,-443.5 1025.38,-320.5 456.62,-320.5"/>
<text xml:space="preserve" text-anchor="start" x="464.62" y="-426.2" font-family="Courier,monospace" font-size="14.00">loopbody:</text>
<polyline fill="none" stroke="#b70d28" points="456.62,-419 1025.38,-419"/>
<text xml:space="preserve" text-anchor="start" x="464.62" y="-401.7" font-family="Courier,monospace" font-size="14.00">%i.032 = phi i32 [ %addtmp, %loopcond ], [ 3, %loopcond.preheader ]</text>
<text xml:space="preserve" text-anchor="start" x="464.62" y="-385.2" font-family="Courier,monospace" font-size="14.00"> %modtmp17 = srem i32 %0, %i.032</text>
<text xml:space="preserve" text-anchor="start" x="464.62" y="-368.7" font-family="Courier,monospace" font-size="14.00"> %eqtmp18.not.not = icmp ne i32 %modtmp17, 0</text>
<text xml:space="preserve" text-anchor="start" x="464.62" y="-352.2" font-family="Courier,monospace" font-size="14.00"> br i1 %eqtmp18.not.not, label %loopcond, label %common.ret</text>
<polyline fill="none" stroke="#b70d28" points="456.62,-345 1025.38,-345"/>
<text xml:space="preserve" text-anchor="middle" x="598.75" y="-327.7" font-family="Courier,monospace" font-size="14.00">T</text>
<polyline fill="none" stroke="#b70d28" points="740.88,-320.5 740.88,-345"/>
<text xml:space="preserve" text-anchor="middle" x="883" y="-327.7" font-family="Courier,monospace" font-size="14.00">F</text>
</g>
<!-- Node0x55980c7ff300&#45;&gt;Node0x55980c7ff4a0 -->
<g id="edge8" class="edge">
<title>Node0x55980c7ff300:s1&#45;&gt;Node0x55980c7ff4a0</title>
<path fill="none" stroke="black" d="M741.75,-480C741.75,-471.95 741.72,-463.53 741.68,-455.15"/>
<polygon fill="black" stroke="black" points="745.18,-455.29 741.62,-445.31 738.18,-455.33 745.18,-455.29"/>
</g>
<!-- Node0x55980c7ff4a0&#45;&gt;Node0x55980c7fe110 -->
<g id="edge12" class="edge">
<title>Node0x55980c7ff4a0:s1&#45;&gt;Node0x55980c7fe110</title>
<path fill="none" stroke="black" d="M883,-320C883,-248.39 913.57,-211.68 864,-160 836.25,-131.07 767,-112.02 687.52,-99.47"/>
<polygon fill="black" stroke="black" points="688.16,-96.02 677.74,-97.97 687.1,-102.94 688.16,-96.02"/>
</g>
<!-- Node0x55980c7ff5c0 -->
<g id="node7" class="node">
<title>Node0x55980c7ff5c0</title>
<polygon fill="#b70d28" fill-opacity="0.439216" stroke="#b70d28" points="385.12,-160.5 385.12,-283.5 854.88,-283.5 854.88,-160.5 385.12,-160.5"/>
<text xml:space="preserve" text-anchor="start" x="393.12" y="-266.2" font-family="Courier,monospace" font-size="14.00">loopcond:</text>
<polyline fill="none" stroke="#b70d28" points="385.12,-259 854.88,-259"/>
<text xml:space="preserve" text-anchor="start" x="393.12" y="-241.7" font-family="Courier,monospace" font-size="14.00">%addtmp = add i32 %i.032, 2</text>
<text xml:space="preserve" text-anchor="start" x="393.12" y="-225.2" font-family="Courier,monospace" font-size="14.00"> %divtmp = sdiv i32 %0, %addtmp</text>
<text xml:space="preserve" text-anchor="start" x="393.12" y="-208.7" font-family="Courier,monospace" font-size="14.00"> %letmp14.not = icmp sgt i32 %addtmp, %divtmp</text>
<text xml:space="preserve" text-anchor="start" x="393.12" y="-192.2" font-family="Courier,monospace" font-size="14.00"> br i1 %letmp14.not, label %common.ret, label %loopbody</text>
<polyline fill="none" stroke="#b70d28" points="385.12,-185 854.88,-185"/>
<text xml:space="preserve" text-anchor="middle" x="502.25" y="-167.7" font-family="Courier,monospace" font-size="14.00">T</text>
<polyline fill="none" stroke="#b70d28" points="619.38,-160.5 619.38,-185"/>
<text xml:space="preserve" text-anchor="middle" x="737" y="-167.7" font-family="Courier,monospace" font-size="14.00">F</text>
</g>
<!-- Node0x55980c7ff4a0&#45;&gt;Node0x55980c7ff5c0 -->
<g id="edge11" class="edge">
<title>Node0x55980c7ff4a0:s0&#45;&gt;Node0x55980c7ff5c0</title>
<path fill="none" stroke="black" d="M598.75,-320C598.75,-311.88 599.47,-303.47 600.64,-295.14"/>
<polygon fill="black" stroke="black" points="604.08,-295.81 602.25,-285.37 597.17,-294.67 604.08,-295.81"/>
</g>
<!-- Node0x55980c7ff5c0&#45;&gt;Node0x55980c7fe110 -->
<g id="edge9" class="edge">
<title>Node0x55980c7ff5c0:s0&#45;&gt;Node0x55980c7fe110</title>
<path fill="none" stroke="black" d="M384.12,-172.75C379,-172.75 369.82,-154.91 360.99,-134.5"/>
<polygon fill="black" stroke="black" points="364.26,-133.25 357.16,-125.39 357.81,-135.97 364.26,-133.25"/>
</g>
<!-- Node0x55980c7ff5c0&#45;&gt;Node0x55980c7ff4a0 -->
<g id="edge10" class="edge">
<title>Node0x55980c7ff5c0:s1&#45;&gt;Node0x55980c7ff4a0</title>
<path fill="none" stroke="black" d="M737,-159.5C737,-133.3 836.43,-141.9 854.88,-160.5 874.2,-179.99 866.38,-259.08 854.88,-284 850.35,-293.8 844.29,-302.97 837.32,-311.47"/>
<polygon fill="black" stroke="black" points="834.73,-309.12 830.75,-318.93 839.98,-313.74 834.73,-309.12"/>
</g>
</g>
</svg>
